<?xml version="1.0" encoding="utf-8"?>
<!-- Generator: Adobe Illustrator 27.5.0, SVG Export Plug-In . SVG Version: 6.00 Build 0)  -->
<svg version="1.1" id="Layer_1" xmlns="http://www.w3.org/2000/svg" xmlns:xlink="http://www.w3.org/1999/xlink" x="0px" y="0px"
	 viewBox="0 0 4000 4000" style="enable-background:new 0 0 4000 4000;" xml:space="preserve">
<g>
	<g>
		<rect style="fill:#FFFFFF;" width="4000" height="4000"/>
	</g>
	<g>
		<circle style="fill:#E7C0FF;" cx="2000" cy="2000" r="1323.334"/>
	</g>
	<g>
		<g>
			<g>
				<path style="fill:#EF771D;" d="M2243.972,2104.045l-27.69-69.389l-39.752,135.956c-27.836,41.072-59.836,36.186-95.019-3.834
					c81.015-124.366,108.633-244.616,78.095-360.385c0,0-94.62,133.324-96.46,136.52l-32.078-70.047l53.235-68.41l-103.287,18.222
					l-99.493-43.21c66.484-3.901,129.695-15.864,187.537-41.029c90.311-39.254,158.912-116.897,187.859-210.988
					c4.883-15.871,10.413-31.355,16.577-46.441c6.099-14.928-3.258-31.805-19.159-34.485c-14.074-2.373-27.855-7.607-39.842-13.457
					c-22.667-11.008-42.153-27.538-57.804-47.272l-109.577-138.101c43.127,18.396,81.428,47.393,116.876,82.764
					c19.51,19.505,43.416,34.392,70.141,41.099c0.323,0.081,0.646,0.161,0.97,0.24c49.123,11.964,100.42-5.585,134.584-42.855
					c56.583-61.728,130.677-112.515,223.116-151.882l17.442,110.28c-340.723,147.538-435.649,554.449-287.232,808.768
					C2298.734,2136.766,2243.972,2104.045,2243.972,2104.045z"/>
				<path style="fill:#390176;" d="M2134.364,2201.75c-16.936,0-35.347-11.187-54.773-33.281l-1.282-1.46l1.06-1.626
					c80.09-122.949,106.697-241.685,79.126-353.003c-33.215,46.812-91.375,128.887-93.14,131.821l-2.5,4.15l-2.036-4.375
					l-32.722-71.455l50.107-64.395l-97.5,17.202l-0.706-0.303l-109.329-47.48l10.706-0.63
					c72.209-4.238,133.269-17.593,186.665-40.82c89.509-38.906,157.463-115.229,186.436-209.399
					c4.873-15.84,10.476-31.538,16.653-46.655c2.617-6.406,2.175-13.565-1.211-19.648c-3.376-6.064-9.209-10.2-16.006-11.343
					c-12.676-2.139-26.316-6.743-40.537-13.682c-22.271-10.815-42.017-26.963-58.689-47.983l-115.845-146.001l9.275,3.955
					c40.19,17.144,78.684,44.395,117.681,83.306c20.203,20.2,44.048,34.18,68.958,40.43l0.854,0.21
					c47.236,11.509,97.856-4.624,132.192-42.07c56.978-62.163,132.341-113.472,223.997-152.51l3.018-1.284l18.267,115.474
					l-1.821,0.791c-155.344,67.266-270.168,193.555-323.32,355.601c-50.708,154.595-36.77,322.642,37.28,449.531l0.762,1.304
					l-0.774,1.299c-10.525,17.622-28.242,24.678-51.287,20.42c-16.98-3.145-30.686-11.255-31.26-11.597l-0.745-0.444l-25.261-63.306
					l-38.01,129.556c-12.681,18.706-26.777,28.677-41.897,29.624C2135.958,2201.725,2135.162,2201.75,2134.364,2201.75z
					 M2084.72,2166.54c18.745,20.903,36.079,30.962,51.709,30.029c13.372-0.84,26.074-9.946,37.759-27.061l41.721-142.691
					l30.112,75.459c6.621,3.76,52.205,27.891,74.009-6.211c-74.097-127.974-87.93-296.958-36.951-452.373
					c53.408-162.832,168.54-289.863,324.329-357.915l-16.621-105.078c-89.619,38.589-163.357,89.033-219.216,149.971
					c-35.591,38.823-88.115,55.542-137.075,43.608l-1.001-0.249c-25.793-6.47-50.457-20.913-71.313-41.767
					c-35.422-35.342-70.378-60.928-106.545-77.944l103.059,129.883c16.191,20.42,35.342,36.084,56.919,46.567
					c13.787,6.729,26.956,11.177,39.148,13.232c8.337,1.406,15.491,6.475,19.626,13.906c4.146,7.446,4.685,16.221,1.477,24.067
					c-6.121,14.98-11.67,30.532-16.501,46.226c-29.412,95.601-98.401,173.086-189.282,212.583
					c-51.328,22.334-109.6,35.63-177.844,40.552l89.092,38.691l109.072-19.243l-56.362,72.432l29.548,64.517
					c14.712-21.177,85.164-120.464,93.933-132.818l3.164-4.458l1.394,5.283C2192.105,1919.562,2166.075,2040.944,2084.72,2166.54z"
					/>
			</g>
		</g>
		<g style="opacity:0.55;">
			<g>
				<path style="fill:#FFFFFF;" d="M2277.756,1564.519c-28.948,94.091-97.548,171.734-187.859,210.988
					c-42.237,18.372-87.371,29.713-134.547,35.998l-73.827-32.037c66.484-3.9,129.695-15.864,187.537-41.029
					c90.311-39.255,158.912-116.898,187.859-210.988c4.676-15.129,9.867-29.91,15.711-44.316c0.823,0.168,1.684,0.357,2.529,0.486
					c15.92,2.681,25.257,19.546,19.165,34.473C2288.182,1533.194,2282.654,1548.65,2277.756,1564.519z"/>
			</g>
			<g>
				<path style="fill:#FFFFFF;" d="M2184.826,1367.526c-31.684-31.621-65.689-58.144-103.366-76.517l-34.346-43.316
					c43.127,18.396,81.428,47.393,116.876,82.764c19.51,19.506,43.415,34.393,70.141,41.099c0.312,0.078,0.625,0.156,0.976,0.256
					c49.136,11.95,100.406-5.613,134.575-42.876c56.583-61.737,130.701-112.51,223.12-151.878l6.836,43.204
					c-85.983,38.478-155.439,87.186-209.12,145.743c-34.131,37.285-85.46,54.864-134.574,42.875
					c-0.313-0.078-0.625-0.156-0.976-0.255C2228.241,1401.918,2204.336,1387.031,2184.826,1367.526z"/>
			</g>
			<g>
				<path style="fill:#FFFFFF;" d="M2180.462,1843.48c29.534,111.982,4.659,228.179-70.381,348.225
					c-9.237-5.42-18.815-13.794-28.588-24.935c68.818-105.604,99.121-208.258,87.924-307.743
					C2176.184,1849.493,2180.462,1843.48,2180.462,1843.48z"/>
			</g>
		</g>
		<g>
			<g>
				<path style="fill:#390176;" d="M2134.19,2216.896c-21.65,0-43.269-12.603-65.972-38.428c-5.244-5.967-5.874-14.697-1.538-21.353
					c69.553-106.772,97.625-209.898,83.728-307.158c-33.042,46.606-69.158,97.651-72.227,102.29
					c-3.374,5.439-9.412,8.672-15.864,8.345c-6.616-0.308-12.507-4.287-15.266-10.313l-32.078-70.044
					c-2.749-6.001-1.929-13.032,2.124-18.237l24.995-32.124l-58,10.234c-3.428,0.606-6.946,0.186-10.127-1.196l-99.492-43.208
					c-7.517-3.262-11.809-11.26-10.378-19.326c1.431-8.066,8.213-14.102,16.392-14.58c70.403-4.131,129.778-17.08,181.511-39.59
					c85.457-37.144,150.332-110.029,178.003-199.966c5.007-16.269,10.764-32.397,17.109-47.93c1.189-2.905,0.244-5.351-0.422-6.553
					c-0.664-1.191-2.231-3.267-5.293-3.779c-14.109-2.378-29.136-7.427-44.663-15.005c-24.302-11.807-45.815-29.365-63.911-52.182
					l-109.575-138.101c-5.034-6.343-5.12-15.298-0.208-21.738c4.912-6.436,13.567-8.735,21.021-5.542
					c41.997,17.915,82.046,46.216,122.434,86.514c18.276,18.272,39.692,30.879,61.946,36.46l0.735,0.181
					c41.904,10.21,86.868-4.209,117.463-37.588c58.45-63.765,135.571-116.318,229.229-156.206c5.015-2.139,10.735-1.846,15.51,0.796
					c4.771,2.642,8.057,7.339,8.909,12.725l17.444,110.278c1.262,7.979-3.037,15.796-10.449,19.009
					c-151.316,65.523-263.167,188.55-314.949,346.426c-49.38,150.542-35.933,313.97,35.969,437.178
					c3.25,5.566,3.215,12.461-0.09,17.993c-13.857,23.203-37.678,32.998-67.043,27.549c-19.294-3.574-34.592-12.48-36.272-13.486
					c-3.335-1.992-5.92-5.024-7.361-8.633l-8.665-21.719l-25.349,86.689c-0.515,1.768-1.304,3.442-2.336,4.966
					c-15.449,22.788-33.442,34.985-53.484,36.245C2136.529,2216.862,2135.357,2216.896,2134.19,2216.896z M2103.885,2164.63
					c12.085,11.592,22.876,17.422,31.594,16.821c8.052-0.503,16.411-6.753,24.871-18.574l38.943-133.189
					c2.119-7.251,8.604-12.353,16.147-12.715c7.542-0.357,14.485,4.106,17.283,11.118l25.278,63.35
					c9.495,4.565,30.237,12.52,43.535,2.646c-71.492-130.42-83.894-299.487-32.847-455.117
					c53.54-163.228,167.593-291.396,321.951-362.271l-11.726-74.141c-79.597,36.602-145.522,83.076-196.179,138.345
					c-39.324,42.9-97.5,61.333-151.824,48.086l-1.196-0.293c-28.354-7.114-55.449-22.935-78.24-45.723
					c-8.02-8.003-16.003-15.479-23.977-22.451l43.059,54.268c14.771,18.623,32.156,32.876,51.672,42.354
					c12.505,6.104,24.29,10.112,35.049,11.924c12.898,2.173,23.955,10,30.342,21.47c6.394,11.489,7.219,25.034,2.263,37.163
					c-5.95,14.561-11.348,29.688-16.045,44.951c-30.713,99.829-102.781,180.752-197.722,222.021
					c-37.952,16.509-79.485,28.223-125.759,35.391l32.827,14.253l98.042-17.295c7.219-1.265,14.46,2.021,18.24,8.301
					c3.777,6.269,3.303,14.224-1.194,20l-46.638,59.937l14.734,32.173c16.023-22.744,42.351-59.922,78.801-111.284
					c3.977-5.605,10.85-8.399,17.598-7.173c6.763,1.231,12.202,6.26,13.955,12.9
					C2207.066,1916.906,2182.559,2038.888,2103.885,2164.63z"/>
			</g>
		</g>
		<g>
			
				<ellipse transform="matrix(0.7071 -0.7071 0.7071 0.7071 -923.9208 1621.7563)" style="fill:#9B47FC;" cx="1495.673" cy="1926.149" rx="229.849" ry="229.848"/>
			<path style="fill:#390176;" d="M1495.281,2158.512c-39.314,0-79.124-9.971-115.571-30.952
				c-53.796-30.977-92.314-81.045-108.452-140.991c-16.14-59.941-7.969-122.583,23.005-176.377
				c63.943-111.055,206.316-149.38,317.371-85.454c111.057,63.94,149.387,206.313,85.447,317.373l0,0
				C1654.127,2116.72,1575.76,2158.512,1495.281,2158.512z M1496.058,1698.903c-78.713,0-155.347,40.864-197.361,113.838
				c-62.534,108.613-25.046,247.852,83.567,310.386c108.618,62.534,247.852,25.039,310.383-83.564
				c62.534-108.618,25.046-247.857-83.567-310.391C1573.443,1708.654,1534.498,1698.903,1496.058,1698.903z"/>
		</g>
		<g style="opacity:0.55;">
			<path style="fill:#FFFFFF;" d="M1723.211,1879.297c-18.629-45.602-52.042-85.572-98.025-112.046
				c-109.99-63.327-250.493-25.498-313.842,84.53c-30.67,53.27-37.634,113.702-24.119,169.075
				c-25.987-63.421-23.396-137.811,13.479-201.856c63.327-109.99,203.852-147.857,313.88-84.508
				C1671.304,1767.148,1708.857,1820.326,1723.211,1879.297z"/>
		</g>
		<g style="opacity:0.2;">
			
				<ellipse transform="matrix(0.7308 -0.6825 0.6825 0.7308 -847.0981 1451.6945)" style="fill:#FFFFFF;" cx="1417.086" cy="1799.902" rx="89.118" ry="71.269"/>
		</g>
		<g style="opacity:0.2;">
			
				<ellipse transform="matrix(0.1166 -0.9932 0.9932 0.1166 -732.5094 3102.291)" style="fill:#FFFFFF;" cx="1377.705" cy="1962.927" rx="35.739" ry="35.739"/>
		</g>
		<g style="opacity:0.3;">
			<path style="fill:#390176;" d="M1694.877,2040.841c-63.335,110.005-203.891,147.848-313.896,84.512
				c-56.333-32.433-93.731-85.113-108.321-143.533c13.843,13.792,29.735,26.047,47.48,36.264
				c110.042,63.357,250.54,25.529,313.876-84.476c30.944-53.746,37.734-114.751,23.814-170.458
				C1729.957,1834.807,1747.996,1948.581,1694.877,2040.841z"/>
			<path style="fill:#390176;" d="M1495.281,2158.522c-39.316,0-79.128-9.966-115.579-30.952
				c-55.19-31.777-94.089-83.32-109.526-145.132l-2.227-8.926l6.516,6.494c13.926,13.877,29.722,25.942,46.951,35.859
				c52.62,30.303,113.892,38.296,172.51,22.524c58.616-15.781,107.581-53.442,137.874-106.055
				c29.531-51.294,37.893-111.157,23.547-168.564l-2.224-8.901l6.509,6.465c74.583,74.097,89.985,189.556,37.461,280.781
				l-2.217-1.274l2.217,1.274C1654.134,2116.73,1575.765,2158.522,1495.281,2158.522z M1277.525,1990.016
				c16.48,56.533,53.398,103.564,104.731,133.12c108.608,62.524,247.864,25.039,310.403-83.569
				c49.841-86.567,37.139-195.449-30.283-268.037c11.675,55.918,2.512,113.584-26.143,163.354
				c-30.974,53.799-81.042,92.31-140.977,108.443c-59.939,16.138-122.578,7.954-176.394-23.027
				C1303.946,2011.71,1290.074,2001.544,1277.525,1990.016z"/>
		</g>
		<g>
			<path style="fill:#390176;" d="M1495.257,2173.649c-41.877,0-84.28-10.615-123.101-32.964
				c-118.296-68.11-159.124-219.761-91.016-338.052c68.108-118.296,219.751-159.121,338.049-91.021
				c118.293,68.11,159.121,219.761,91.013,338.057C1664.451,2129.137,1580.977,2173.649,1495.257,2173.649z M1496.031,1714.044
				c-73.469,0-144.995,38.14-184.211,106.255c-28.274,49.106-35.732,106.289-20.999,161.006
				c14.731,54.717,49.89,100.425,98.999,128.696c101.37,58.354,231.338,23.379,289.705-77.998l15.339,8.833l-15.339-8.833
				c58.367-101.377,23.377-231.343-78-289.707C1568.26,1723.146,1531.912,1714.044,1496.031,1714.044z"/>
		</g>
		<g>
			<circle style="fill:#9B47FC;" cx="1403.908" cy="2353.52" r="229.848"/>
			<path style="fill:#390176;" d="M1403.516,2585.88c-39.314,0-79.123-9.966-115.571-30.952
				c-111.055-63.94-149.387-206.313-85.447-317.368c63.941-111.06,206.313-149.399,317.373-85.449
				c111.055,63.94,149.387,206.313,85.447,317.368l0,0C1562.362,2544.088,1483.995,2585.88,1403.516,2585.88z M1404.29,2126.276
				c-78.713,0-155.342,40.859-197.358,113.833c-62.532,108.613-25.044,247.852,83.567,310.386
				c108.606,62.529,247.852,25.049,310.386-83.564l2.217,1.274l-2.217-1.274c62.532-108.613,25.044-247.852-83.567-310.386
				C1481.681,2136.027,1442.733,2126.276,1404.29,2126.276z"/>
		</g>
		<g style="opacity:0.55;">
			<path style="fill:#FFFFFF;" d="M1630.716,2306.348c-18.803-44.68-51.851-83.776-97.066-109.809
				c-110.028-63.349-250.531-25.521-313.88,84.508c-30.339,52.694-37.46,112.424-24.531,167.305
				c-26.891-63.891-24.665-139.153,12.607-203.89c63.327-109.99,203.89-147.835,313.88-84.508
				C1578.984,2192.921,1616.655,2246.78,1630.716,2306.348z"/>
		</g>
		<g style="opacity:0.2;">
			
				<ellipse transform="matrix(0.7308 -0.6826 0.6826 0.7308 -1163.501 1504.0975)" style="fill:#FFFFFF;" cx="1325.322" cy="2227.272" rx="89.118" ry="71.269"/>
		</g>
		<g style="opacity:0.2;">
			
				<ellipse transform="matrix(0.9148 -0.4039 0.4039 0.9148 -855.8287 722.9672)" style="fill:#FFFFFF;" cx="1285.941" cy="2390.298" rx="35.739" ry="35.739"/>
		</g>
		<g style="opacity:0.3;">
			<path style="fill:#390176;" d="M1603.113,2468.212c-63.335,110.005-203.891,147.848-313.896,84.512
				c-56.333-32.434-93.731-85.113-108.321-143.533c13.843,13.792,29.735,26.047,47.48,36.264
				c110.042,63.357,250.54,25.529,313.876-84.476c30.944-53.746,37.734-114.751,23.814-170.458
				C1638.192,2262.178,1656.232,2375.952,1603.113,2468.212z"/>
			<path style="fill:#390176;" d="M1403.516,2585.895c-39.314,0-79.126-9.966-115.576-30.952
				c-55.195-31.782-94.092-83.325-109.529-145.132l-2.227-8.926l6.514,6.494c13.933,13.882,29.729,25.942,46.953,35.859
				c108.618,62.534,247.859,25.059,310.383-83.535c29.531-51.294,37.896-111.152,23.55-168.56l-2.227-8.901l6.509,6.465
				c74.58,74.097,89.985,189.556,37.464,280.781l0,0C1562.371,2544.103,1484,2585.895,1403.516,2585.895z M1185.76,2417.384
				c16.479,56.533,53.398,103.564,104.734,133.125c108.611,62.524,247.859,25.039,310.403-83.569l0,0
				c49.839-86.567,37.136-195.449-30.286-268.037c11.675,55.918,2.512,113.584-26.143,163.35
				c-63.931,111.045-206.301,149.37-317.371,85.42C1212.183,2439.088,1198.314,2428.922,1185.76,2417.384z"/>
		</g>
		<g>
			<path style="fill:#390176;" d="M1403.492,2601.022c-41.875,0-84.28-10.62-123.103-32.969
				c-118.291-68.11-159.121-219.761-91.013-338.052c68.108-118.296,219.756-159.116,338.052-91.016
				c118.291,68.11,159.121,219.761,91.013,338.052l0,0C1572.684,2556.51,1489.212,2601.022,1403.492,2601.022z M1404.266,2141.413
				c-73.469,0-144.993,38.14-184.211,106.255c-58.364,101.377-23.374,231.338,78.001,289.702
				c101.382,58.389,231.343,23.384,289.707-77.998c58.364-101.377,23.374-231.338-78-289.702
				C1476.497,2150.514,1440.145,2141.413,1404.266,2141.413z M1603.101,2468.205h0.049H1603.101z"/>
		</g>
		<g>
			
				<ellipse transform="matrix(0.7071 -0.7071 0.7071 0.7071 -879.0417 1889.5013)" style="fill:#9B47FC;" cx="1841.309" cy="2005.848" rx="229.849" ry="229.849"/>
			<path style="fill:#390176;" d="M1840.933,2238.356c-40.178,0-79.832-10.513-115.586-31.099
				c-53.799-30.977-92.314-81.045-108.454-140.991c-16.138-59.941-7.966-122.583,23.008-176.377
				c30.974-53.799,81.045-92.314,140.986-108.457c59.946-16.123,122.583-7.964,176.384,23.008
				c53.797,30.977,92.314,81.045,108.452,140.991c16.14,59.941,7.969,122.583-23.005,176.377l-2.217-1.274l2.217,1.274
				c-30.974,53.799-81.045,92.314-140.989,108.457C1881.624,2235.675,1861.209,2238.356,1840.933,2238.356z M1841.676,1778.458
				c-19.832,0-39.793,2.622-59.458,7.915c-58.623,15.786-107.59,53.452-137.883,106.064c-30.293,52.617-38.284,113.877-22.5,172.5
				s53.452,107.593,106.067,137.886c52.612,30.293,113.875,38.276,172.497,22.5c58.625-15.786,107.593-53.452,137.886-106.064
				c62.534-108.613,25.046-247.852-83.567-310.386C1919.754,1788.742,1880.968,1778.458,1841.676,1778.458z"/>
		</g>
		<g style="opacity:0.55;">
			<path style="fill:#FFFFFF;" d="M1661.926,1930.105c-34.158,59.329-38.903,127.524-18.751,187.688
				c-36.808-67.864-38.563-152.619,2.771-224.412c63.349-110.029,203.852-147.857,313.88-84.508
				c50.585,29.124,85.895,74.578,103.14,125.868c-19.572-35.983-49.04-67.195-87.16-89.143
				C1865.815,1782.271,1725.252,1820.115,1661.926,1930.105z"/>
		</g>
		<g style="opacity:0.2;">
			
				<ellipse transform="matrix(0.7308 -0.6826 0.6826 0.7308 -808.4648 1709.0625)" style="fill:#FFFFFF;" cx="1762.723" cy="1879.6" rx="89.118" ry="71.269"/>
		</g>
		<g style="opacity:0.2;">
			
				<ellipse transform="matrix(0.8644 -0.5028 0.5028 0.8644 -793.3428 1143.4451)" style="fill:#FFFFFF;" cx="1723.342" cy="2042.626" rx="35.739" ry="35.739"/>
		</g>
		<g style="opacity:0.3;">
			<path style="fill:#390176;" d="M2040.514,2120.54c-63.335,110.005-203.891,147.848-313.896,84.512
				c-56.333-32.434-93.731-85.113-108.321-143.533c13.843,13.792,29.735,26.047,47.48,36.264
				c110.042,63.357,250.54,25.53,313.876-84.476c30.944-53.745,37.734-114.751,23.814-170.457
				C2075.593,1914.505,2093.633,2028.28,2040.514,2120.54z"/>
			<path style="fill:#390176;" d="M1840.921,2238.361c-40.178,0-79.832-10.508-115.581-31.094
				c-55.19-31.772-94.087-83.315-109.526-145.127l-2.227-8.921l6.514,6.489c13.931,13.877,29.726,25.942,46.953,35.859
				c108.616,62.529,247.859,25.059,310.381-83.535c29.531-51.289,37.896-111.152,23.55-168.565l-2.222-8.901l6.506,6.465
				c74.583,74.097,89.985,189.556,37.461,280.781l-2.217-1.274l2.217,1.274c-30.972,53.799-81.047,92.314-140.999,108.457
				C1881.619,2235.685,1861.202,2238.361,1840.921,2238.361z M1623.162,2069.713c16.482,56.533,53.401,103.569,104.731,133.12
				c52.612,30.293,113.875,38.286,172.507,22.495c58.633-15.786,107.605-53.457,137.896-106.064
				c49.841-86.568,37.139-195.454-30.286-268.037c11.677,55.923,2.515,113.584-26.143,163.354
				c-63.936,111.045-206.309,149.365-317.368,85.42C1649.583,2091.413,1635.714,2081.247,1623.162,2069.713z"/>
		</g>
		<g>
			<path style="fill:#390176;" d="M1840.909,2253.507c-42.798,0-85.032-11.201-123.118-33.125
				c-57.305-32.993-98.33-86.328-115.52-150.176c-17.19-63.853-8.486-130.571,24.507-187.876
				c32.991-57.305,86.323-98.33,150.173-115.518c63.845-17.192,130.571-8.486,187.876,24.502
				c118.293,68.11,159.121,219.761,91.013,338.052l0,0c-32.991,57.305-86.323,98.33-150.173,115.518
				C1884.251,2250.651,1862.506,2253.507,1840.909,2253.507z M1841.651,1793.61c-18.511,0-37.141,2.446-55.496,7.388
				c-54.719,14.731-100.425,49.888-128.699,98.999c-28.274,49.107-35.732,106.289-21.001,161.006s49.893,100.425,99.001,128.696
				c49.111,28.271,106.294,35.728,161.006,21.001c54.719-14.731,100.425-49.888,128.699-98.999l0,0
				c28.274-49.106,35.732-106.289,20.999-161.006c-14.731-54.717-49.89-100.425-98.999-128.696
				C1914.527,1803.209,1878.323,1793.61,1841.651,1793.61z"/>
		</g>
		<g>
			
				<ellipse transform="matrix(0.7071 -0.7071 0.7071 0.7071 -1401.8466 1925.287)" style="fill:#9B47FC;" cx="1623.104" cy="2654.822" rx="188.901" ry="188.901"/>
			<path style="fill:#390176;" d="M1622.796,2846.364c-33.101,0-65.767-8.662-95.222-25.62
				c-91.489-52.676-123.066-169.961-70.393-261.45c52.678-91.489,169.971-123.062,261.453-70.396
				c44.319,25.518,76.05,66.768,89.346,116.147c13.296,49.385,6.565,100.986-18.953,145.303
				c-25.517,44.321-66.765,76.055-116.147,89.351C1656.317,2844.157,1639.5,2846.364,1622.796,2846.364z M1623.419,2468.517
				c-64.531,0-127.358,33.501-161.804,93.325c-51.267,89.048-20.532,203.198,68.513,254.468
				c43.132,24.834,93.362,31.382,141.421,18.447c48.062-12.939,88.208-43.823,113.044-86.958l0,0
				c24.836-43.135,31.387-93.359,18.445-141.421c-12.939-48.066-43.821-88.213-86.958-113.047
				C1686.864,2476.51,1654.935,2468.517,1623.419,2468.517z"/>
		</g>
		<g style="opacity:0.55;">
			<path style="fill:#FFFFFF;" d="M1479.222,2592.503c-30.493,52.962-32.45,114.542-10.67,166.911
				c-36.803-57.496-41.102-133.043-4.692-196.283c52.044-90.393,167.589-121.502,257.981-69.458
				c37.43,21.551,64.704,54.002,80.089,91.048c-15.816-24.681-37.598-46.005-64.75-61.637
				C1646.788,2471.039,1531.266,2502.11,1479.222,2592.503z"/>
		</g>
		<g style="opacity:0.2;">
			
				<ellipse transform="matrix(0.7308 -0.6826 0.6826 0.7308 -1321.7386 1750.4177)" style="fill:#FFFFFF;" cx="1558.518" cy="2551.066" rx="73.242" ry="58.572"/>
		</g>
		<g style="opacity:0.2;">
			
				<ellipse transform="matrix(0.7894 -0.6139 0.6139 0.7894 -1326.9454 1502.4845)" style="fill:#FFFFFF;" cx="1526.153" cy="2685.048" rx="29.372" ry="29.372"/>
		</g>
		<g style="opacity:0.3;">
			<path style="fill:#390176;" d="M1786.82,2749.082c-52.052,90.407-167.568,121.509-257.975,69.456
				c-46.297-26.656-77.033-69.95-89.023-117.963c11.377,11.335,24.438,21.407,39.021,29.804
				c90.438,52.069,205.906,20.981,257.958-69.427c25.431-44.171,31.012-94.308,19.571-140.09
				C1815.65,2579.752,1830.475,2673.258,1786.82,2749.082z"/>
			<path style="fill:#390176;" d="M1622.784,2846.369c-33.098,0-65.767-8.657-95.217-25.615
				c-45.466-26.177-77.51-68.638-90.229-119.556l-2.227-8.921l6.514,6.489c11.426,11.377,24.377,21.27,38.496,29.395
				c43.145,24.849,93.381,31.406,141.431,18.462c48.057-12.935,88.198-43.813,113.032-86.943
				c24.211-42.056,31.069-91.133,19.307-138.198l-2.224-8.901l6.509,6.465c61.44,61.04,74.131,156.162,30.862,231.313l0,0
				c-25.518,44.316-66.768,76.05-116.157,89.346C1656.312,2844.162,1639.493,2846.369,1622.784,2846.369z M1444.72,2708.751
				c13.733,45.645,43.792,83.613,85.4,107.568c43.127,24.834,93.354,31.387,141.428,18.442
				c48.069-12.939,88.22-43.823,113.054-86.953l0,0c40.586-70.498,30.583-159.043-23.721-218.55
				c9.114,45.566,1.47,92.446-21.865,132.969c-25.515,44.321-66.76,76.045-116.135,89.336
				c-49.385,13.296-100.986,6.553-145.315-18.97C1465.758,2725.797,1454.742,2717.799,1444.72,2708.751z"/>
		</g>
		<g>
			<path style="fill:#390176;" d="M1622.772,2861.515c-35.718,0-70.967-9.346-102.754-27.646
				c-98.726-56.846-132.8-183.408-75.96-282.134c56.843-98.721,183.408-132.793,282.131-75.962
				c47.825,27.539,82.066,72.051,96.411,125.337c14.348,53.286,7.085,108.975-20.452,156.797
				c-27.534,47.827-72.046,82.065-125.332,96.411C1658.944,2859.132,1640.797,2861.515,1622.772,2861.515z M1623.392,2483.654
				c-59.287,0-117.007,30.781-148.655,85.747c-47.1,81.807-18.862,186.685,62.947,233.784
				c39.631,22.827,85.779,28.843,129.929,16.948c44.155-11.89,81.04-40.259,103.857-79.893l0,0
				c22.817-39.629,28.835-85.771,16.946-129.927s-40.261-81.04-79.893-103.857
				C1681.681,2491.002,1652.347,2483.654,1623.392,2483.654z"/>
		</g>
		<g>
			<circle style="fill:#9B47FC;" cx="2002.946" cy="2382.819" r="229.848"/>
			<path style="fill:#390176;" d="M2002.552,2615.177c-39.314,0-79.121-9.966-115.569-30.947
				c-111.057-63.94-149.387-206.318-85.447-317.373c63.938-111.06,206.306-149.385,317.371-85.449
				c111.057,63.94,149.39,206.313,85.449,317.368l-2.217-1.274l2.217,1.274C2161.4,2573.385,2083.031,2615.177,2002.552,2615.177z
				 M2003.328,2155.573c-78.713,0-155.344,40.864-197.358,113.833c-62.534,108.618-25.046,247.856,83.567,310.391
				c108.613,62.529,247.852,25.044,310.386-83.569c62.532-108.613,25.044-247.852-83.569-310.386
				C2080.716,2165.324,2041.771,2155.573,2003.328,2155.573z"/>
		</g>
		<g style="opacity:0.55;">
			<path style="fill:#FFFFFF;" d="M1832.678,2310.242c-43.653,75.82-39.216,166.204,3.778,235.74
				c-65.892-71.894-80.852-180.898-29.625-269.873c63.349-110.028,203.852-147.857,313.88-84.508
				c34.055,19.608,61.193,46.619,80.55,77.832c-15.485-16.83-33.802-31.666-54.704-43.699
				C2036.568,2162.407,1896.026,2200.214,1832.678,2310.242z"/>
		</g>
		<g style="opacity:0.2;">
			
				<ellipse transform="matrix(0.7308 -0.6825 0.6825 0.7308 -1022.2597 1920.851)" style="fill:#FFFFFF;" cx="1924.359" cy="2256.571" rx="89.118" ry="71.269"/>
		</g>
		<g style="opacity:0.2;">
			
				<ellipse transform="matrix(0.1166 -0.9932 0.9932 0.1166 -737.9531 4009.5095)" style="fill:#FFFFFF;" cx="1884.979" cy="2419.597" rx="35.739" ry="35.739"/>
		</g>
		<g style="opacity:0.3;">
			<path style="fill:#390176;" d="M2202.15,2497.511c-63.335,110.005-203.891,147.848-313.897,84.512
				c-56.333-32.434-93.731-85.113-108.321-143.533c13.843,13.792,29.735,26.048,47.48,36.264
				c110.042,63.356,250.54,25.529,313.876-84.476c30.944-53.746,37.734-114.751,23.814-170.457
				C2237.23,2291.476,2255.269,2405.25,2202.15,2497.511z"/>
			<path style="fill:#390176;" d="M2002.554,2615.192c-39.316,0-79.128-9.966-115.578-30.952
				c-55.191-31.777-94.089-83.32-109.526-145.132l-2.227-8.926l6.516,6.494c13.926,13.877,29.722,25.942,46.951,35.859
				c52.622,30.303,113.887,38.291,172.51,22.524c58.616-15.781,107.581-53.442,137.874-106.055
				c29.529-51.299,37.893-111.162,23.547-168.564l-2.224-8.901l6.509,6.465c74.583,74.097,89.985,189.556,37.461,280.781
				l-2.217-1.274l2.217,1.274C2161.407,2573.4,2083.038,2615.192,2002.554,2615.192z M1784.798,2446.686
				c16.479,56.533,53.399,103.564,104.731,133.12c108.611,62.524,247.861,25.039,310.403-83.569
				c49.841-86.567,37.139-195.449-30.283-268.037c11.672,55.913,2.512,113.584-26.143,163.354
				c-30.974,53.799-81.042,92.31-140.976,108.442c-59.934,16.138-122.581,7.959-176.394-23.027
				C1811.219,2468.38,1797.347,2458.214,1784.798,2446.686z"/>
		</g>
		<g>
			<path style="fill:#390176;" d="M2002.528,2630.319c-41.877,0-84.275-10.615-123.098-32.964
				c-118.293-68.11-159.124-219.761-91.016-338.057c68.105-118.291,219.751-159.111,338.049-91.016
				c118.293,68.11,159.124,219.756,91.016,338.052l0,0C2171.724,2585.802,2088.248,2630.319,2002.528,2630.319z M2003.304,2170.714
				c-73.469,0-144.995,38.14-184.211,106.25c-58.367,101.377-23.377,231.338,78,289.707
				c101.37,58.359,231.335,23.374,289.707-78.003c58.364-101.377,23.374-231.338-78.003-289.702
				C2075.533,2179.816,2039.183,2170.714,2003.304,2170.714z"/>
		</g>
		<g>
			<g>
				<circle style="fill:#9B47FC;" cx="2347.178" cy="2324.642" r="229.849"/>
				<path style="fill:#390176;" d="M2346.802,2557.15c-40.178,0-79.832-10.513-115.586-31.099
					c-111.057-63.94-149.39-206.313-85.449-317.368c63.938-111.06,206.313-149.399,317.373-85.449
					c53.796,30.977,92.314,81.045,108.452,140.991c16.14,59.941,7.969,122.583-23.005,176.377
					c-30.974,53.799-81.045,92.314-140.989,108.457C2387.493,2554.469,2367.078,2557.15,2346.802,2557.15z M2347.559,2097.399
					c-78.713,0-155.342,40.859-197.358,113.833c-62.532,108.613-25.044,247.852,83.569,310.386s247.849,25.044,310.383-83.564
					c62.534-108.613,25.046-247.852-83.567-310.386C2424.949,2107.15,2386.002,2097.399,2347.559,2097.399z"/>
			</g>
			<g style="opacity:0.55;">
				<path style="fill:#FFFFFF;" d="M2165.899,2252.183c-33.275,57.795-38.639,124.051-20.262,183.04
					c-37.219-67.948-39.165-153.17,2.346-225.27c63.327-109.99,203.852-147.857,313.88-84.508
					c52.272,30.096,88.219,77.549,104.803,130.961c-19.562-35.824-48.92-66.872-86.887-88.731
					C2369.751,2104.326,2229.226,2142.193,2165.899,2252.183z"/>
			</g>
			<g style="opacity:0.3;">
				<path style="fill:#390176;" d="M2546.383,2439.334c-63.335,110.005-203.891,147.848-313.897,84.512
					c-56.333-32.434-93.731-85.113-108.321-143.533c13.843,13.792,29.735,26.047,47.48,36.264
					c110.042,63.357,250.54,25.529,313.876-84.476c30.944-53.746,37.734-114.751,23.814-170.458
					C2581.462,2233.299,2599.501,2347.073,2546.383,2439.334z"/>
				<path style="fill:#390176;" d="M2346.79,2557.155c-40.178,0.005-79.832-10.508-115.581-31.094
					c-55.19-31.772-94.087-83.315-109.526-145.127l-2.227-8.921l6.514,6.489c13.931,13.877,29.727,25.938,46.953,35.859
					c108.618,62.534,247.854,25.059,310.381-83.535c29.531-51.294,37.896-111.157,23.55-168.564l-2.227-8.901l6.509,6.465
					c74.58,74.097,89.985,189.556,37.463,280.781l0,0c-30.972,53.799-81.047,92.314-140.999,108.457
					C2387.489,2554.479,2367.071,2557.155,2346.79,2557.155z M2129.031,2388.507c16.482,56.533,53.401,103.569,104.731,133.12
					c52.612,30.293,113.879,38.291,172.507,22.495c58.633-15.786,107.605-53.457,137.896-106.064l2.217,1.274l-2.217-1.274
					c49.839-86.567,37.136-195.454-30.286-268.037c11.675,55.923,2.512,113.589-26.143,163.354
					c-63.936,111.05-206.309,149.365-317.368,85.42C2155.452,2410.207,2141.583,2400.041,2129.031,2388.507z"/>
			</g>
			<g style="opacity:0.2;">
				
					<ellipse transform="matrix(0.7308 -0.6825 0.6825 0.7308 -889.8973 2140.1453)" style="fill:#FFFFFF;" cx="2268.592" cy="2198.394" rx="89.118" ry="71.269"/>
			</g>
			<g style="opacity:0.2;">
				
					<ellipse transform="matrix(0.7071 -0.7071 0.7071 0.7071 -1016.8554 2267.9338)" style="fill:#FFFFFF;" cx="2229.211" cy="2361.42" rx="35.739" ry="35.739"/>
			</g>
			<g>
				<path style="fill:#390176;" d="M2346.778,2572.301c-42.798,0-85.032-11.201-123.118-33.125
					c-118.293-68.11-159.124-219.756-91.016-338.052s219.756-159.111,338.052-91.016c118.293,68.11,159.121,219.761,91.013,338.052
					c-32.993,57.305-86.326,98.33-150.176,115.518C2390.12,2569.445,2368.375,2572.301,2346.778,2572.301z M2347.535,2112.536
					c-73.469,0-144.993,38.14-184.211,106.255c-58.364,101.377-23.374,231.338,78.003,289.702
					c49.102,28.271,106.282,35.728,161.006,21.001c54.717-14.731,100.422-49.888,128.699-98.999
					c28.274-49.106,35.732-106.289,20.999-161.006c-14.731-54.717-49.89-100.425-98.999-128.696
					C2419.766,2121.637,2383.414,2112.536,2347.535,2112.536z"/>
			</g>
		</g>
		<g>
			<circle style="fill:#9B47FC;" cx="2104.681" cy="2731.009" r="188.901"/>
			<path style="fill:#390176;" d="M2104.376,2922.55c-33.101,0-65.769-8.662-95.224-25.62
				c-44.319-25.513-76.05-66.763-89.343-116.143c-13.296-49.385-6.567-100.986,18.95-145.308
				c52.676-91.494,169.956-123.066,261.455-70.396c91.489,52.676,123.066,169.966,70.391,261.455
				c-25.515,44.321-66.765,76.05-116.147,89.346C2137.896,2920.343,2121.077,2922.55,2104.376,2922.55z M2104.998,2544.704
				c-64.534,0-127.361,33.501-161.807,93.325c-24.834,43.14-31.384,93.364-18.445,141.426
				c12.939,48.062,43.823,88.208,86.958,113.042c43.13,24.834,93.357,31.382,141.423,18.447
				c48.062-12.939,88.208-43.818,113.042-86.953l2.217,1.274l-2.217-1.274c51.267-89.048,20.535-203.203-68.511-254.473
				C2168.441,2552.697,2136.514,2544.704,2104.998,2544.704z"/>
		</g>
		<g style="opacity:0.55;">
			<path style="fill:#FFFFFF;" d="M2291.739,2690.327c-15.801-34.374-42.089-64.368-77.333-84.66
				c-90.431-52.066-205.915-20.973-257.981,69.458c-25.459,44.219-30.984,94.347-19.508,140.223
				c-24.658-53.669-23.784-118.068,7.924-173.14c52.044-90.393,167.528-121.485,257.959-69.419
				C2248.936,2599.352,2279.627,2642.452,2291.739,2690.327z"/>
		</g>
		<g style="opacity:0.3;">
			<path style="fill:#390176;" d="M2268.397,2825.269c-52.052,90.407-167.568,121.509-257.975,69.456
				c-46.297-26.656-77.033-69.95-89.023-117.963c11.377,11.335,24.438,21.407,39.021,29.804
				c90.438,52.069,205.906,20.981,257.958-69.427c25.431-44.171,31.012-94.308,19.571-140.09
				C2297.227,2655.939,2312.053,2749.445,2268.397,2825.269z"/>
			<path style="fill:#390176;" d="M2104.364,2922.555c-33.098,0-65.766-8.657-95.217-25.615
				c-45.469-26.177-77.512-68.638-90.229-119.556l-2.227-8.921l6.514,6.489c11.428,11.382,24.377,21.27,38.494,29.395
				c89.045,51.27,203.201,20.547,254.465-68.481c24.209-42.051,31.067-91.133,19.304-138.198l-2.222-8.901l6.506,6.465
				c61.443,61.045,74.133,156.162,30.862,231.313l-2.217-1.274l2.217,1.274c-25.515,44.316-66.768,76.05-116.155,89.346
				C2137.891,2920.348,2121.073,2922.555,2104.364,2922.555z M1926.3,2784.938c13.731,45.645,43.789,83.613,85.4,107.568
				c43.13,24.839,93.352,31.387,141.428,18.442c48.069-12.939,88.218-43.823,113.052-86.953l0,0
				c40.588-70.498,30.583-159.043-23.721-218.55c9.114,45.566,1.47,92.446-21.863,132.969
				c-52.666,91.479-169.949,123.047-261.453,70.366C1947.337,2801.984,1936.324,2793.986,1926.3,2784.938z"/>
		</g>
		<g style="opacity:0.2;">
			
				<ellipse transform="matrix(0.7308 -0.6825 0.6825 0.7308 -1244.1156 2099.6128)" style="fill:#FFFFFF;" cx="2040.095" cy="2627.253" rx="73.242" ry="58.572"/>
		</g>
		<g style="opacity:0.2;">
			
				<ellipse transform="matrix(0.9656 -0.26 0.26 0.9656 -648.8266 616.9157)" style="fill:#FFFFFF;" cx="2007.73" cy="2761.235" rx="29.372" ry="29.372"/>
		</g>
		<g>
			<path style="fill:#390176;" d="M2104.351,2937.702c-35.718,0-70.972-9.346-102.756-27.646
				c-47.825-27.534-82.063-72.046-96.411-125.332c-14.346-53.286-7.085-108.975,20.452-156.802
				c56.841-98.721,183.406-132.798,282.131-75.962c98.728,56.846,132.803,183.408,75.959,282.139l0,0
				c-27.534,47.822-72.043,82.061-125.332,96.406C2140.521,2935.319,2122.374,2937.702,2104.351,2937.702z M2104.971,2559.845
				c-59.287,0-117.009,30.776-148.657,85.742c-22.815,39.629-28.833,85.776-16.946,129.932c11.89,44.155,40.261,81.04,79.89,103.853
				c39.631,22.822,85.779,28.843,129.932,16.948c44.158-11.885,81.04-40.259,103.857-79.888l15.339,8.833l-15.339-8.833
				c47.1-81.812,18.865-186.689-62.944-233.789C2163.26,2567.189,2133.927,2559.845,2104.971,2559.845z"/>
		</g>
		<g>
			
				<ellipse transform="matrix(0.7071 -0.7071 0.7071 0.7071 -1593.0588 2089.7134)" style="fill:#9B47FC;" cx="1725.978" cy="2967.849" rx="188.901" ry="188.901"/>
			<path style="fill:#390176;" d="M1725.67,3159.391c-33.098,0-65.767-8.662-95.222-25.62
				c-91.489-52.676-123.069-169.961-70.393-261.45c52.678-91.494,169.961-123.066,261.455-70.396
				c44.319,25.518,76.047,66.768,89.343,116.147c13.296,49.385,6.565,100.986-18.953,145.303l0,0
				c-25.515,44.321-66.765,76.055-116.147,89.351C1759.193,3157.184,1742.374,3159.391,1725.67,3159.391z M1726.292,2781.54
				c-64.531,0-127.356,33.506-161.804,93.33c-51.267,89.048-20.532,203.198,68.513,254.468
				c43.13,24.834,93.357,31.387,141.423,18.447c48.062-12.939,88.208-43.823,113.042-86.958l0,0
				c51.27-89.043,20.535-203.198-68.511-254.468C1789.74,2789.538,1757.808,2781.54,1726.292,2781.54z"/>
		</g>
		<g style="opacity:0.55;">
			<path style="fill:#FFFFFF;" d="M1580.838,2914.48c-27.866,48.399-31.889,103.989-15.752,153.211
				c-32.876-56.512-35.436-128.606-0.46-189.354c52.044-90.393,167.566-121.463,257.959-69.419
				c41.994,24.178,71.188,62.075,85.21,104.77c-16.059-27.628-39.315-51.537-68.998-68.627
				C1748.405,2793.017,1632.882,2824.087,1580.838,2914.48z"/>
		</g>
		<g style="opacity:0.3;">
			<path style="fill:#390176;" d="M1889.694,3062.108c-52.052,90.407-167.568,121.509-257.975,69.456
				c-46.297-26.655-77.033-69.95-89.023-117.963c11.377,11.335,24.438,21.407,39.021,29.804
				c90.438,52.07,205.906,20.981,257.958-69.427c25.431-44.171,31.012-94.308,19.571-140.09
				C1918.524,2892.779,1933.349,2986.284,1889.694,3062.108z"/>
			<path style="fill:#390176;" d="M1725.66,3159.396c-33.1,0-65.764-8.657-95.217-25.615
				c-45.469-26.177-77.512-68.638-90.229-119.561l-2.227-8.926l6.516,6.494c11.421,11.382,24.37,21.274,38.491,29.399
				c89.05,51.27,203.203,20.542,254.465-68.481c24.209-42.056,31.067-91.138,19.304-138.198l-2.224-8.901l6.509,6.465
				c61.443,61.045,74.133,156.162,30.862,231.309c-25.515,44.321-66.765,76.05-116.155,89.346
				C1759.188,3157.189,1742.366,3159.396,1725.66,3159.396z M1547.596,3021.774c13.733,45.649,43.792,83.618,85.401,107.573
				c43.132,24.839,93.362,31.382,141.428,18.442c48.069-12.944,88.218-43.828,113.052-86.958l0,0
				c40.588-70.493,30.586-159.038-23.721-218.545c9.114,45.566,1.47,92.441-21.863,132.969
				c-52.669,91.475-169.949,123.042-261.453,70.366C1568.631,3038.825,1557.618,3030.827,1547.596,3021.774z"/>
		</g>
		<g style="opacity:0.2;">
			
				<ellipse transform="matrix(0.7308 -0.6825 0.6825 0.7308 -1507.7028 1904.8802)" style="fill:#FFFFFF;" cx="1661.392" cy="2864.092" rx="73.242" ry="58.572"/>
		</g>
		<g style="opacity:0.2;">
			
				<ellipse transform="matrix(0.7894 -0.6139 0.6139 0.7894 -1497.4497 1631.5736)" style="fill:#FFFFFF;" cx="1629.027" cy="2998.075" rx="29.372" ry="29.372"/>
		</g>
		<g>
			<path style="fill:#390176;" d="M1725.645,3174.542c-35.718,0-70.967-9.346-102.754-27.646
				c-98.726-56.846-132.8-183.408-75.959-282.134c56.843-98.726,183.408-132.798,282.134-75.962
				c47.822,27.539,82.063,72.051,96.409,125.337c14.348,53.286,7.085,108.975-20.452,156.797
				c-27.534,47.827-72.043,82.065-125.332,96.411C1761.82,3172.16,1743.67,3174.542,1725.645,3174.542z M1726.268,2796.681
				c-59.29,0-117.009,30.781-148.657,85.747c-47.1,81.807-18.862,186.685,62.947,233.784
				c39.627,22.817,85.767,28.843,129.929,16.948c44.158-11.89,81.04-40.259,103.855-79.893c0.002,0,0.002,0,0.002,0
				c22.817-39.629,28.835-85.771,16.946-129.927c-11.887-44.155-40.261-81.04-79.89-103.857
				C1784.556,2804.025,1755.223,2796.681,1726.268,2796.681z"/>
		</g>
		<g>
			
				<ellipse transform="matrix(0.7071 -0.7071 0.7071 0.7071 -1604.2218 1837.6582)" style="fill:#9B47FC;" cx="1416.139" cy="2855.296" rx="188.901" ry="188.901"/>
			<path style="fill:#390176;" d="M1415.819,3046.715c-32.388,0-65.183-8.213-95.21-25.498
				c-91.489-52.676-123.066-169.961-70.393-261.45c52.673-91.489,169.958-123.066,261.453-70.396
				c91.489,52.676,123.069,169.966,70.393,261.455l0,0C1546.673,3012.292,1482.118,3046.715,1415.819,3046.715z M1416.453,2668.991
				c-64.531,0-127.358,33.501-161.804,93.325c-51.267,89.048-20.532,203.198,68.513,254.468
				c89.041,51.265,203.198,20.537,254.465-68.506c51.267-89.048,20.532-203.203-68.513-254.473
				C1479.898,2676.984,1447.969,2668.991,1416.453,2668.991z"/>
		</g>
		<g style="opacity:0.55;">
			<path style="fill:#FFFFFF;" d="M1266.99,2798.404c-26.695,46.366-31.495,99.313-17.664,146.953
				c-27.234-54.692-27.422-121.592,5.345-178.505c52.066-90.431,167.55-121.524,257.943-69.48
				c44.065,25.371,74.002,65.79,87.182,111.012c-15.989-32.184-41.345-60.162-74.825-79.438
				C1434.578,2676.902,1319.056,2707.972,1266.99,2798.404z"/>
		</g>
		<g style="opacity:0.3;">
			<path style="fill:#390176;" d="M1579.855,2949.555c-52.052,90.407-167.568,121.509-257.975,69.456
				c-46.297-26.655-77.033-69.95-89.023-117.962c11.377,11.335,24.438,21.407,39.021,29.803
				c90.438,52.07,205.906,20.981,257.958-69.427c25.431-44.171,31.012-94.308,19.571-140.09
				C1608.685,2780.226,1623.51,2873.731,1579.855,2949.555z"/>
			<path style="fill:#390176;" d="M1415.821,3046.842c-33.101,0-65.767-8.657-95.217-25.615
				c-45.469-26.177-77.512-68.638-90.229-119.556l-2.227-8.921l6.514,6.489c11.428,11.382,24.377,21.27,38.494,29.395
				c89.045,51.27,203.205,20.542,254.465-68.481c24.209-42.051,31.067-91.133,19.304-138.198l-2.222-8.901l6.506,6.465
				c61.443,61.045,74.133,156.162,30.862,231.313l-2.217-1.274l2.217,1.274c-25.515,44.316-66.768,76.05-116.155,89.346
				C1449.349,3044.635,1432.528,3046.842,1415.821,3046.842z M1237.757,2909.225c13.73,45.645,43.789,83.613,85.4,107.568
				c43.132,24.839,93.357,31.382,141.428,18.442c48.069-12.939,88.218-43.823,113.052-86.953l0,0
				c40.589-70.498,30.583-159.043-23.721-218.55c9.114,45.566,1.47,92.446-21.863,132.969
				c-52.668,91.479-169.944,123.047-261.453,70.366C1258.795,2926.271,1247.781,2918.273,1237.757,2909.225z"/>
		</g>
		<g style="opacity:0.2;">
			
				<ellipse transform="matrix(0.7308 -0.6826 0.6826 0.7308 -1514.2821 1663.1207)" style="fill:#FFFFFF;" cx="1351.553" cy="2751.54" rx="73.242" ry="58.572"/>
		</g>
		<g style="opacity:0.2;">
			
				<ellipse transform="matrix(0.9656 -0.26 0.26 0.9656 -704.8148 442.1826)" style="fill:#FFFFFF;" cx="1319.188" cy="2885.522" rx="29.372" ry="29.372"/>
		</g>
		<g>
			<path style="fill:#390176;" d="M1415.794,3061.857c-34.949,0-70.342-8.862-102.742-27.515
				c-98.726-56.846-132.8-183.408-75.959-282.134c56.838-98.721,183.398-132.793,282.131-75.962
				c98.726,56.846,132.803,183.408,75.96,282.139l0,0C1556.998,3024.708,1487.335,3061.857,1415.794,3061.857z M1416.429,2684.132
				c-59.29,0-117.009,30.776-148.657,85.742c-47.1,81.807-18.862,186.685,62.947,233.784
				c81.804,47.114,186.682,18.867,233.787-62.939l0,0c47.1-81.812,18.865-186.689-62.947-233.789
				C1474.715,2691.476,1445.384,2684.132,1416.429,2684.132z M1579.844,2949.552h0.049H1579.844z"/>
		</g>
		<g>
			<circle style="fill:#9B47FC;" cx="1874.541" cy="2645.321" r="229.849"/>
			<path style="fill:#390176;" d="M1874.166,2877.829c-40.178,0-79.831-10.513-115.586-31.099
				c-111.057-63.94-149.39-206.313-85.449-317.368c63.938-111.06,206.311-149.399,317.373-85.449
				c111.055,63.94,149.387,206.313,85.447,317.368c-30.974,53.799-81.045,92.314-140.989,108.457
				C1914.857,2875.148,1894.442,2877.829,1874.166,2877.829z M1874.923,2418.078c-78.713,0-155.342,40.859-197.358,113.833
				c-62.532,108.613-25.044,247.852,83.569,310.386c108.611,62.534,247.844,25.049,310.383-83.564l2.217,1.274l-2.217-1.274
				c62.532-108.613,25.044-247.852-83.567-310.386C1952.313,2427.829,1913.365,2418.078,1874.923,2418.078z"/>
		</g>
		<g style="opacity:0.55;">
			<path style="fill:#FFFFFF;" d="M1696.029,2568.07c-35.77,62.128-39.264,134.005-15.683,196.195
				c-40.591-68.919-43.927-157.138-1.158-231.423c63.327-109.99,203.852-147.857,313.88-84.509
				c47.938,27.601,82.205,69.9,100.295,117.948c-19.493-33.282-47.634-62.097-83.454-82.72
				C1899.919,2420.235,1759.355,2458.08,1696.029,2568.07z"/>
		</g>
		<g style="opacity:0.3;">
			<path style="fill:#390176;" d="M2073.745,2760.013c-63.335,110.005-203.891,147.848-313.897,84.512
				c-56.333-32.433-93.731-85.113-108.321-143.533c13.843,13.792,29.735,26.048,47.48,36.264
				c110.042,63.356,250.54,25.529,313.876-84.476c30.944-53.746,37.734-114.751,23.814-170.457
				C2108.825,2553.978,2126.864,2667.752,2073.745,2760.013z"/>
			<path style="fill:#390176;" d="M1874.154,2877.833c-40.178,0.005-79.831-10.508-115.581-31.094
				c-55.193-31.777-94.092-83.315-109.526-145.127l-2.227-8.926l6.516,6.494c13.916,13.867,29.712,25.933,46.948,35.859
				c108.623,62.539,247.864,25.054,310.383-83.535c29.531-51.294,37.895-111.157,23.55-168.564l-2.227-8.901l6.509,6.465
				c74.58,74.097,89.985,189.556,37.463,280.781l0,0c-30.972,53.799-81.047,92.314-140.999,108.457
				C1914.852,2875.158,1894.434,2877.833,1874.154,2877.833z M1656.395,2709.191c16.479,56.528,53.398,103.56,104.732,133.115
				c52.61,30.288,113.882,38.291,172.507,22.495c58.633-15.786,107.605-53.457,137.896-106.064l2.217,1.274l-2.217-1.274
				c49.839-86.567,37.136-195.454-30.286-268.037c11.675,55.923,2.512,113.589-26.142,163.354
				c-63.931,111.045-206.304,149.37-317.371,85.42C1682.806,2730.88,1668.936,2720.714,1656.395,2709.191z"/>
		</g>
		<g style="opacity:0.2;">
			
				<ellipse transform="matrix(0.7308 -0.6826 0.6826 0.7308 -1235.9926 1903.8662)" style="fill:#FFFFFF;" cx="1795.954" cy="2519.073" rx="89.118" ry="71.269"/>
		</g>
		<g style="opacity:0.2;">
			
				<ellipse transform="matrix(0.0423 -0.9991 0.9991 0.0423 -997.4196 4323.6616)" style="fill:#FFFFFF;" cx="1756.574" cy="2682.099" rx="35.739" ry="35.739"/>
		</g>
		<g>
			<path style="fill:#390176;" d="M1874.124,2892.824c-41.875,0-84.277-10.62-123.101-32.969
				c-118.293-68.11-159.124-219.756-91.016-338.052c68.11-118.296,219.758-159.111,338.052-91.016
				c118.291,68.11,159.121,219.761,91.013,338.052l0,0C2043.316,2848.312,1959.844,2892.824,1874.124,2892.824z M1874.898,2433.214
				c-73.469,0-144.995,38.14-184.211,106.255c-58.367,101.377-23.374,231.338,78.003,289.702
				c49.106,28.267,106.282,35.728,161.006,21.001c54.717-14.731,100.422-49.888,128.699-98.999l0,0
				c58.364-101.377,23.374-231.338-78-289.702C1947.13,2442.316,1910.777,2433.214,1874.898,2433.214z M2073.734,2760.006h0.049
				H2073.734z"/>
		</g>
		<g>
			<circle style="fill:#9B47FC;" cx="1454.021" cy="3168.1" r="188.901"/>
			<path style="fill:#390176;" d="M1453.697,3359.523c-32.388,0-65.181-8.213-95.208-25.498
				c-91.489-52.676-123.066-169.966-70.391-261.455c25.515-44.321,66.765-76.05,116.148-89.346
				c49.38-13.291,100.989-6.558,145.305,18.955c44.319,25.513,76.05,66.763,89.343,116.143
				c13.296,49.385,6.567,100.986-18.95,145.308l0,0C1584.556,3325.094,1519.996,3359.523,1453.697,3359.523z M1454.32,2981.676
				c-16.26,0-32.622,2.148-48.745,6.489c-48.062,12.939-88.208,43.818-113.042,86.953c-51.267,89.048-20.535,203.203,68.511,254.473
				c89.05,51.265,203.201,20.527,254.468-68.511c24.834-43.14,31.384-93.364,18.445-141.426s-43.823-88.208-86.958-113.042
				C1518.333,2990.109,1486.531,2981.676,1454.32,2981.676z"/>
		</g>
		<g style="opacity:0.55;">
			<path style="fill:#FFFFFF;" d="M1641.837,3139.792c-15.346-37.38-42.739-70.156-80.438-91.861
				c-90.431-52.066-205.915-20.974-257.981,69.458c-23.803,41.342-30.212,87.95-21.483,131.324
				c-21.451-52.231-19.358-113.426,10.98-166.12c52.044-90.393,167.566-121.464,257.959-69.42
				C1599.925,3041.415,1631.52,3088.355,1641.837,3139.792z"/>
		</g>
		<g style="opacity:0.3;">
			<path style="fill:#390176;" d="M1617.737,3262.36c-52.052,90.407-167.568,121.509-257.975,69.456
				c-46.297-26.656-77.033-69.95-89.023-117.963c11.377,11.335,24.438,21.407,39.022,29.803
				c90.438,52.07,205.906,20.981,257.958-69.427c25.431-44.171,31.012-94.308,19.571-140.09
				C1646.567,3093.031,1661.393,3186.535,1617.737,3262.36z"/>
			<path style="fill:#390176;" d="M1453.697,3359.533c-32.39,0-65.186-8.208-95.212-25.498
				c-45.469-26.177-77.512-68.638-90.229-119.561l-2.227-8.921l6.514,6.489c11.421,11.372,24.37,21.265,38.494,29.399
				c89.048,51.265,203.206,20.542,254.465-68.486c24.211-42.051,31.069-91.128,19.307-138.193l-2.224-8.901l6.509,6.465
				c61.44,61.035,74.131,156.152,30.862,231.309l0,0C1584.564,3325.104,1519.998,3359.533,1453.697,3359.533z M1275.638,3222.023
				c13.73,45.649,43.792,83.623,85.401,107.578c89.05,51.265,203.213,20.532,254.482-68.516l0,0
				c40.586-70.498,30.583-159.043-23.721-218.545c9.114,45.566,1.467,92.441-21.865,132.964
				c-52.664,91.479-169.951,123.052-261.453,70.371C1296.671,3239.074,1285.655,3231.071,1275.638,3222.023z"/>
		</g>
		<g style="opacity:0.2;">
			
				<ellipse transform="matrix(0.7308 -0.6825 0.6825 0.7308 -1717.5858 1773.1606)" style="fill:#FFFFFF;" cx="1389.435" cy="3064.344" rx="73.242" ry="58.572"/>
		</g>
		<g style="opacity:0.2;">
			
				<ellipse transform="matrix(0.9656 -0.26 0.26 0.9656 -784.8348 462.7873)" style="fill:#FFFFFF;" cx="1357.07" cy="3198.326" rx="29.372" ry="29.372"/>
		</g>
		<g>
			<path style="fill:#390176;" d="M1453.67,3374.66c-34.949,0-70.334-8.857-102.734-27.51
				c-98.728-56.846-132.803-183.408-75.959-282.139c27.534-47.822,72.043-82.061,125.332-96.406
				c53.301-14.351,108.979-7.085,156.799,20.449c47.825,27.534,82.063,72.046,96.411,125.332
				c14.346,53.286,7.085,108.975-20.452,156.802l0,0C1594.881,3337.511,1525.213,3374.66,1453.67,3374.66z M1454.295,2996.828
				c-14.939,0-29.971,1.973-44.783,5.962c-44.158,11.885-81.04,40.259-103.857,79.888c-47.1,81.812-18.865,186.689,62.944,233.789
				c81.809,47.095,186.682,18.867,233.789-62.944l0,0c22.815-39.629,28.833-85.776,16.946-129.932
				c-11.89-44.155-40.261-81.04-79.89-103.853C1513.106,3004.572,1483.89,2996.828,1454.295,2996.828z M1617.728,3262.355h0.049
				H1617.728z"/>
		</g>
		<g>
			<circle style="fill:#9B47FC;" cx="1671.414" cy="2298.318" r="188.901"/>
			<path style="fill:#390176;" d="M1671.107,2489.86c-33.101,0-65.767-8.662-95.222-25.62
				c-44.319-25.518-76.05-66.768-89.346-116.147c-13.296-49.385-6.565-100.986,18.953-145.303
				c52.678-91.494,169.976-123.057,261.453-70.396c44.319,25.518,76.05,66.768,89.346,116.147
				c13.296,49.385,6.565,100.986-18.953,145.303c-25.518,44.321-66.765,76.055-116.147,89.351
				C1704.627,2487.653,1687.808,2489.86,1671.107,2489.86z M1671.729,2112.013c-64.531,0-127.358,33.501-161.804,93.325
				c-24.836,43.135-31.387,93.359-18.445,141.421c12.939,48.066,43.821,88.213,86.958,113.047
				c43.132,24.829,93.354,31.387,141.421,18.447c48.061-12.939,88.208-43.823,113.044-86.958l0,0
				c24.836-43.135,31.387-93.359,18.445-141.421c-12.939-48.066-43.821-88.213-86.958-113.047
				C1735.174,2120.006,1703.245,2112.013,1671.729,2112.013z"/>
		</g>
		<g style="opacity:0.55;">
			<path style="fill:#FFFFFF;" d="M1858.276,2259.81c-15.672-35.219-42.27-66.004-78.243-86.716
				c-90.431-52.066-205.915-20.974-257.981,69.458c-25.856,44.909-31.188,96.12-18.912,142.558
				c-23.786-53.32-22.585-116.867,8.769-171.325c52.066-90.432,167.55-121.524,257.943-69.48
				C1815.374,2170.513,1845.837,2212.767,1858.276,2259.81z"/>
		</g>
		<g style="opacity:0.3;">
			<path style="fill:#390176;" d="M1835.13,2392.577c-52.052,90.407-167.568,121.509-257.975,69.456
				c-46.297-26.656-77.033-69.95-89.023-117.963c11.377,11.335,24.438,21.407,39.021,29.804
				c90.438,52.069,205.906,20.981,257.958-69.427c25.431-44.171,31.012-94.308,19.571-140.09
				C1863.96,2223.248,1878.786,2316.753,1835.13,2392.577z"/>
			<path style="fill:#390176;" d="M1671.092,2489.748c-32.388,0-65.186-8.208-95.215-25.498
				c-45.466-26.177-77.51-68.638-90.229-119.561l-2.229-8.926l6.519,6.494c11.418,11.382,24.37,21.27,38.494,29.399
				c43.147,24.844,93.379,31.406,141.431,18.462c48.057-12.935,88.198-43.813,113.032-86.943
				c24.212-42.056,31.069-91.133,19.307-138.198l-2.224-8.901l6.509,6.465c61.441,61.04,74.131,156.162,30.862,231.313l0,0
				C1801.956,2455.324,1737.396,2489.748,1671.092,2489.748z M1493.033,2352.243c13.733,45.649,43.792,83.618,85.398,107.573
				c89.043,51.26,203.208,20.537,254.483-68.511l0,0c40.586-70.498,30.583-159.043-23.721-218.55
				c9.114,45.566,1.47,92.446-21.865,132.969c-25.515,44.321-66.76,76.045-116.135,89.336
				c-49.382,13.296-100.989,6.553-145.315-18.97C1514.066,2369.293,1503.05,2361.295,1493.033,2352.243z"/>
		</g>
		<g style="opacity:0.2;">
			
				<ellipse transform="matrix(0.7308 -0.6825 0.6825 0.7308 -1065.401 1687.4242)" style="fill:#FFFFFF;" cx="1606.828" cy="2194.562" rx="73.242" ry="58.572"/>
		</g>
		<g style="opacity:0.2;">
			
				<ellipse transform="matrix(0.9656 -0.26 0.26 0.9656 -551.2341 489.3967)" style="fill:#FFFFFF;" cx="1574.463" cy="2328.544" rx="29.372" ry="29.372"/>
		</g>
		<g>
			<path style="fill:#390176;" d="M1671.082,2505.011c-35.718,0-70.969-9.346-102.754-27.646
				c-47.825-27.539-82.065-72.051-96.411-125.337c-14.348-53.286-7.085-108.975,20.452-156.797
				c56.846-98.721,183.406-132.798,282.131-75.962c47.825,27.539,82.065,72.051,96.411,125.337
				c14.348,53.286,7.085,108.975-20.452,156.797c-27.534,47.827-72.046,82.065-125.334,96.411
				C1707.254,2502.628,1689.105,2505.011,1671.082,2505.011z M1671.702,2127.15c-59.287,0-117.007,30.781-148.655,85.747
				c-22.817,39.629-28.835,85.771-16.946,129.927s40.261,81.04,79.893,103.857c39.631,22.822,85.774,28.838,129.927,16.948
				c44.158-11.89,81.043-40.259,103.86-79.893l0,0c22.817-39.629,28.835-85.771,16.946-129.927s-40.261-81.04-79.892-103.857
				C1729.991,2134.499,1700.657,2127.15,1671.702,2127.15z"/>
		</g>
		<g>
			<path style="fill:#390176;" d="M2304.431,1635.996c-1.641,12.189,3.418,27.183,12.175,38.144
				c8.398,10.841,21.726,18.137,36.267,21.442c14.67,3.346,30.872,2.824,46.665-0.364c7.935-1.585,15.71-3.802,23.455-6.611
				c7.827-2.838,15.613-6.165,23.403-9.798c15.588-7.286,31.201-15.746,47.625-23.769c16.377-7.955,33.733-15.739,52.686-20.521
				c18.76-4.747,38.635-7.006,58.926-4.373c20.222,2.627,40.728,11.118,56.484,26.036c15.469,14.914,25.483,34.601,28.643,55.65
				c1.653,10.507,1.326,21.428-0.706,32.059c-1.074,5.293-2.617,10.465-4.59,15.439c-0.984,2.488-2.073,4.929-3.257,7.317
				c-1.445,2.624-3.362,5.808-5.413,8.489c-4.565,5.417-10.537,10.167-17.478,12.628c-6.812,2.43-14.131,3.364-20.908,2.242
				c-6.816-0.942-13.352-3.282-19.082-7.198c-2.969-1.763-5.52-4.281-8.062-6.73c-1.201-1.312-2.273-2.801-3.367-4.24
				c-1.133-1.411-2.08-2.963-2.874-4.65c-3.723-6.443-4.9-14.091-4.812-21.201c0.178-1.721,0.391-3.446,0.64-5.164
				c0.239-1.749,0.525-3.513,0.913-4.613l2.212-7.635c3.472-9.965,8.049-19.68,14.219-28.051
				c5.974-8.526,13.118-15.989,20.784-22.429c7.59-6.62,15.93-11.945,24.353-16.816c17.021-9.47,34.993-16.158,53.357-20.477
				c4.631-1.094,9.119-2.021,13.928-2.875c4.822-0.884,9.67-1.395,14.495-1.676c9.648-0.58,19.207-0.41,28.574,0.732
				c18.745,2.078,36.753,6.99,53.667,13.962c2.656,1.094,3.921,4.135,2.827,6.79c-0.925,2.244-3.237,3.495-5.535,3.17l-0.042-0.007
				c-17.458-2.479-34.802-3.807-51.711-3.141c-8.445,0.422-16.77,1.165-24.822,2.781c-4.023,0.801-7.991,1.709-11.863,2.797
				c-3.884,1.106-8.04,2.402-11.975,3.77c-7.969,2.733-15.71,5.933-23.303,9.302c-7.48,3.578-14.758,7.471-21.604,11.792
				c-6.816,4.342-13.313,9.067-19.016,14.353c-3.037,2.498-5.525,5.394-8.225,8.116c-1.257,1.425-2.375,2.932-3.582,4.382
				c-1.238,1.434-2.361,2.921-3.352,4.479c-4.504,5.959-7.52,12.619-9.99,19.401l-1.538,5.203c-0.366,1.011-0.339,1.465-0.381,1.93
				c-0.054,0.491-0.142,0.974-0.269,1.461c0.225,1.709,0.034,3.258,0.928,4.576c0.081,0.381,0.264,0.739,0.583,1.039
				c0.276,0.319,0.43,0.711,0.708,1.053c0.747,0.555,1.216,1.375,2.153,1.841c1.548,1.246,3.65,2.003,5.615,2.331
				c2.034,0.526,3.833,0.065,5.398-0.305c1.57-0.449,2.681-1.533,3.979-2.775l1.797-2.748c0.815-1.595,1.565-3.221,2.241-4.869
				c1.355-3.297,2.407-6.693,3.149-10.128c1.343-6.852,1.782-14.02,0.596-21.14c-2.09-14.243-9.146-27.969-19.397-37.812
				c-10.271-9.645-24.131-15.773-39.221-17.741c-15.159-1.987-31.377-0.325-47.114,3.681c-15.693,3.928-31.133,10.738-46.785,18.353
				c-15.627,7.62-31.387,16.172-48.108,23.999c-32.976,15.717-72.939,27.889-113.447,18.919
				c-20.022-4.535-40.061-14.967-53.73-32.427c-6.699-8.463-11.807-17.967-15.171-28.278c-3.354-10.283-4.88-21.56-3.42-33.217
				c1.064-8.488,8.809-14.506,17.295-13.443c8.489,1.064,14.507,8.807,13.442,17.294l-0.017,0.142L2304.431,1635.996z"/>
		</g>
		<g>
			<path style="fill:#6CC900;" d="M2368.025,748.886l-34.822,176.182l39.294-9.347c-22.447,57.013-59.614,98.928-110.117,127.238
				c79.823-27.43,163.399-8.404,248.437,28.387c-68.659,49.716-115.434,113.729-143.736,189.8l-73.666-2.613l19.659,37.174
				c-59.235,20.618-121.643,5.157-186.545-38.755c-4.127-3.056-8.18-5.79-12.163-8.211c-24.552-14.927-53.609,10.898-41.666,37.032
				c1.938,4.239,4.177,8.586,6.728,13.043c35.993,69.606,44.023,133.398,16.631,189.775l-34.61-23.886l-6.082,73.493
				c-78.867,19.18-147.926,58.12-205.355,120.472c-26.558-88.768-35.646-173.999,0.961-250.052
				c-34.007,46.803-80.028,78.825-139.28,94.427l13.926-37.955l-179.084,13.938l31.504-42.092
				c-60.362-1.767-122.708-24.151-187.801-74.406l50.309-40.985l-24.526-32.79l45.071-18.035l-4.775-53.068
				c82.294-68.88,174.774-99.922,278.159-90.983c-75.723-21.98-139.622-60.568-184.586-125.812l36.703-5.268
				c-64.239-80.203-100.246-163.415-95.692-250.883l42.77,0.825c-26.671-47.46-39.579-95.49-32.068-144.261
				c49.348-1.765,95.498,16.719,139.534,48.745l4.199-42.571c87.366,5.771,165.778,51.293,237.922,124.47l9.505-35.802
				c59.551,52.28,90.34,120.295,103.317,198.044c3.221-103.69,44.933-191.918,122.961-265.532l52.174,10.939l23.166-42.614
				l29.719,28.174L2270.671,580c42.303,70.511,57.217,135.052,51.889,195.205L2368.025,748.886z"/>
			<path style="fill:#390176;" d="M1848.851,1663.708l-1.289-4.307c-28.625-95.669-30.881-170.61-6.724-233.73
				c-33.367,39.331-76.506,66.157-128.494,79.849l-4.741,1.245l14.241-38.814l-180.742,14.067l31.968-42.715
				c-62.747-2.959-123.12-27.441-184.395-74.746l-2.554-1.973l50.908-41.475l-25.054-33.491l46.399-18.564l-4.724-52.505
				l1.028-0.859c77.517-64.893,164.624-96.05,259.153-92.827c-72.83-24.736-127.283-64.307-166.047-120.557l-2.341-3.393
				l36.375-5.225c-67.19-85.034-97.769-166.558-93.469-249.116l0.127-2.476l40.808,0.791
				c-27.324-50.049-37.209-96.548-30.21-142.007l0.322-2.09l2.117-0.078c45.854-1.597,90.933,13.623,137.515,46.641l4.006-40.625
				l2.471,0.161c82.451,5.449,159.822,45.381,236.426,122.056l9.422-35.479l3.1,2.72c51.289,45.029,84.207,103.74,100.261,179.028
				c7.856-94.238,49.028-177.065,122.573-246.45l0.972-0.918l51.619,10.82l23.848-43.862l30.356,28.774l47.124-45.659l1.658,2.764
				c39.819,66.362,57.061,129.189,52.634,191.87l46.133-26.709l-35.144,177.817l40.186-9.561l-1.794,4.561
				c-19.692,50.015-51.394,89.702-94.385,118.237c65.522-16.577,139.69-5.547,231.34,34.101l4.124,1.787l-3.64,2.632
				c-65.994,47.783-114.053,111.245-142.837,188.623l-0.645,1.729l-71.089-2.525l18.982,35.899l-2.813,0.981
				c-57.444,19.99-120.972,6.846-188.818-39.053c-4.106-3.037-8.132-5.757-12.058-8.145c-10.205-6.211-22.563-5.088-31.492,2.842
				c-8.923,7.934-11.482,20.078-6.519,30.938c1.909,4.18,4.136,8.496,6.621,12.837c37.676,72.856,43.279,137.48,16.711,192.163
				l-1.301,2.681l-33.425-23.071l-5.869,70.933l-1.792,0.435c-80.215,19.507-148.877,59.785-204.077,119.717L1848.851,1663.708z
				 M1848.902,1407.116l4.375,2.612c-31.15,64.717-31.831,142.319-2.083,243.916c54.951-58.428,122.808-97.944,201.775-117.49
				l6.294-76.064l35.774,24.688c24.348-52.588,18.34-114.736-17.881-184.785c-2.51-4.38-4.81-8.838-6.782-13.154
				c-5.918-12.949-2.866-27.432,7.773-36.89c10.647-9.458,25.381-10.786,37.546-3.394c4.06,2.471,8.218,5.278,12.358,8.345
				c65.232,44.136,126.262,57.383,181.355,39.351l-20.32-38.433l76.243,2.71c28.679-76.133,75.884-138.887,140.359-186.597
				c-97.417-41.46-174.563-49.888-242.478-26.553l-2.083-4.648c49.175-27.568,85.2-68.384,107.141-121.372l-38.347,9.121
				l34.5-174.546l-44.846,25.957l0.435-4.907c5.522-62.319-10.801-124.795-49.883-190.894l-46.008,44.58l-29.082-27.573
				l-22.485,41.362l-52.725-11.055c-77.28,73.32-118.052,161.743-121.191,262.832l-5.078,0.342
				c-13.76-82.437-46.287-145.879-99.387-193.794l-9.59,36.118l-3.145-3.188c-75.945-77.036-152.449-117.466-233.799-123.545
				l-4.394,44.546l-3.611-2.627c-46.184-33.589-90.608-49.551-135.813-48.32c-6.365,44.795,4.141,90.786,32.08,140.508l2.19,3.896
				l-44.751-0.859c-3.543,81.538,27.632,162.256,95.254,246.675l2.798,3.496l-37.021,5.317
				c41.426,58.398,100.62,98.135,180.823,121.416l-0.933,5.005c-100.818-8.735-193.406,21.401-275.271,89.536l4.822,53.628
				l-43.743,17.51l23.999,32.085l-49.705,40.493c61.101,46.548,121.24,70.073,183.753,71.904l4.924,0.147l-31.072,41.519
				l177.427-13.813l-13.591,37.046C1771.014,1483.698,1815.772,1452.711,1848.902,1407.116z"/>
		</g>
		<g style="opacity:0.3;">
			<path style="fill:#390176;" d="M1830.518,1339.549c-17.75,36.861-24.744,75.881-24.195,116.435
				c-26.769,21.66-58.189,37.476-94.656,47.067l13.95-37.977l-179.083,13.93l31.517-42.058
				c-60.362-1.766-122.72-24.188-187.804-74.426l37.897-30.878c44.279,23.758,87.292,34.99,129.427,36.22l-31.5,42.118
				l179.106-13.969l-13.95,37.977C1750.507,1418.385,1796.521,1386.358,1830.518,1339.549z"/>
			<path style="fill:#390176;" d="M1707.574,1506.774l14.268-38.838l-180.745,14.058l31.98-42.676
				c-62.717-2.959-123.088-27.451-184.392-74.771l-2.554-1.973l41.719-33.994l1.501,0.806
				c42.666,22.896,84.631,34.643,128.293,35.918l4.924,0.146l-31.069,41.543l177.451-13.843l-13.616,37.07
				c55.225-15.576,99.99-46.572,133.113-92.178l4.375,2.612c-16.689,34.663-24.521,72.373-23.943,115.293l0.017,1.24l-0.967,0.781
				c-27.217,22.026-59.387,38.027-95.613,47.559L1707.574,1506.774z M1729.39,1462.213l-13.613,37.07
				c33.159-9.351,62.729-24.312,87.971-44.512c-0.349-35.85,5.1-68.149,16.604-98.135c-33.359,39.326-76.489,66.142-128.476,79.829
				l-4.744,1.245l14.265-38.838l-180.757,14.097l31.963-42.739c-41.714-1.997-83.45-13.936-124.163-35.532l-34.07,27.764
				c61.13,46.563,121.27,70.103,183.755,71.929l4.929,0.146l-31.084,41.479L1729.39,1462.213z"/>
		</g>
		<g style="opacity:0.3;">
			<path style="fill:#390176;" d="M2096.066,1488.609l-34.596-23.902l-6.106,73.488c-78.862,19.191-147.902,58.13-205.354,120.49
				c-7.286-24.417-13.301-48.56-17.373-72.352c56.826-60.474,124.831-98.324,202.286-117.201l6.068-73.51l34.596,23.901
				c14.909-30.685,19.341-63.571,14.432-98.414C2116.727,1382.036,2120.496,1438.283,2096.066,1488.609z"/>
			<path style="fill:#390176;" d="M1848.844,1663.722l-1.287-4.307c-7.903-26.484-13.608-50.249-17.444-72.651l-0.215-1.255
				l0.872-0.928c54.846-58.364,122.72-97.891,201.755-117.495l6.279-76.084l35.762,24.707c13.33-28.784,17.678-60.474,12.917-94.243
				l-2.595-18.428l7.473,17.046c27.82,63.462,29.841,120.542,6.006,169.644l-1.304,2.681l-33.411-23.081l-5.894,70.918l-1.792,0.434
				c-80.193,19.512-148.855,59.8-204.077,119.736L1848.844,1663.722z M1835.374,1587.16c3.584,20.61,8.772,42.422,15.815,66.499
				c54.971-58.433,122.83-97.954,201.775-117.51l6.323-76.06l35.754,24.707c19.846-42.891,19.563-92.1-0.808-146.528
				c1.479,29.316-3.997,56.953-16.348,82.373l-1.301,2.681l-33.411-23.081l-5.854,70.942l-1.792,0.434
				C1957.125,1490.724,1889.791,1529.596,1835.374,1587.16z"/>
		</g>
		<g style="opacity:0.3;">
			<path style="fill:#390176;" d="M2367.086,1261.161l-73.653-2.627l19.64,37.196c-59.238,20.583-121.63,5.138-186.531-38.766
				c-4.162-3.06-8.204-5.795-12.164-8.229c-16.04-9.746-34.035-2.081-41.21,11.711c-4.106-10.075-8.837-20.305-14.194-30.691
				c-2.532-4.471-4.796-8.787-6.725-13.064c-11.925-26.117,17.092-51.947,41.688-37.019c3.961,2.433,8.003,5.169,12.126,8.207
				c64.901,43.903,127.332,59.371,186.569,38.787l-19.677-37.218l73.653,2.627c20.721-55.678,51.372-104.924,93.208-146.812
				c23.503,6.894,47.187,15.781,71.025,26.084C2442.175,1121.074,2395.371,1185.072,2367.086,1261.161z"/>
			<path style="fill:#390176;" d="M2260.247,1307.184c-42.546,0-87.793-16.074-135.139-48.1c-4.158-3.057-8.188-5.786-12.068-8.169
				c-8.235-5-15.801-4.429-20.701-3.052c-7.246,2.026-13.406,7.041-16.902,13.765l-2.551,4.902l-2.087-5.117
				c-4.06-9.956-8.804-20.215-14.099-30.483c-2.742-4.834-4.976-9.18-6.785-13.184c-5.906-12.935-2.854-27.412,7.778-36.865
				c10.637-9.458,25.386-10.781,37.571-3.393c4.031,2.476,8.171,5.278,12.317,8.335c65.242,44.131,126.274,57.402,181.382,39.38
				l-20.339-38.467l76.233,2.72c21.177-56.201,52.51-105.308,93.149-145.996l1.072-1.074l1.458,0.425
				c22.451,6.587,45.779,15.156,71.318,26.191l4.126,1.782l-3.64,2.637c-66.042,47.832-114.106,111.294-142.856,188.633
				l-0.642,1.728l-71.082-2.534l18.965,35.923l-2.813,0.977C2296.563,1304.176,2278.656,1307.184,2260.247,1307.184z
				 M2099.163,1241.808c5.698,0,11.377,1.606,16.543,4.741c4.011,2.466,8.162,5.273,12.351,8.354
				c66.157,44.751,125.537,57.651,181.35,39.365l-20.3-38.452l76.228,2.72c28.645-76.094,75.857-138.848,140.376-186.602
				c-23.196-9.878-44.568-17.676-65.159-23.784c-40.01,40.371-70.808,89.087-91.548,144.819l-0.645,1.729l-71.079-2.534
				l19.004,35.942l-2.815,0.977c-57.449,19.971-120.984,6.821-188.84-39.082c-4.114-3.032-8.135-5.752-12.031-8.149
				c-10.215-6.191-22.581-5.078-31.506,2.852c-8.916,7.93-11.475,20.068-6.519,30.923c1.75,3.877,3.916,8.081,6.626,12.871
				c4.597,8.911,8.76,17.754,12.429,26.401c4.277-5.767,10.386-10.02,17.334-11.963
				C2093.663,1242.179,2096.417,1241.808,2099.163,1241.808z"/>
		</g>
		<g style="opacity:0.55;">
			<path style="fill:#FFFFFF;" d="M1509.137,798.601c-1.493,28.757,1.384,57.018,8.286,84.941
				c-19.509-45.139-29.003-91.354-26.526-138.847l37.07,0.713c5.776,18.083,13.896,36.086,23.943,54.023L1509.137,798.601z"/>
		</g>
		<g style="opacity:0.55;">
			<path style="fill:#FFFFFF;" d="M1752.68,1180.556c-103.377-8.915-195.841,22.104-278.141,90.992l4.79,53.055l-45.073,18.066
				l24.539,32.766l-22.51,18.342c-15.197-8.903-30.527-19.261-46.038-31.256l50.307-40.992l-24.539-32.766l45.073-18.066
				l-4.751-53.033c57.114-47.848,119.158-77.385,186.356-88.024C1675.257,1152.37,1712.292,1168.843,1752.68,1180.556z"/>
		</g>
		<g style="opacity:0.55;">
			<path style="fill:#FFFFFF;" d="M1892.769,696.09c49.878,43.832,79.565,98.61,95.506,160.945
				c-17.318-40.252-42.335-76.357-77.266-107.039l-9.541,35.817c-72.139-73.194-150.565-118.705-237.931-124.478l-4.189,42.575
				c-44.01-32.029-90.206-50.506-139.535-48.729c-3.51,22.592-2.567,44.99,2.109,67.29c-18.549-39.888-26.64-80.291-20.31-121.174
				c49.329-1.777,95.486,16.679,139.535,48.729l4.189-42.575c87.365,5.773,165.792,51.284,237.931,124.478L1892.769,696.09z"/>
		</g>
		<g style="opacity:0.55;">
			<path style="fill:#FFFFFF;" d="M2315.447,685.406c-7.218-16.82-16.043-33.952-26.569-51.501l-46.545,45.099l-29.746-28.156
				l-23.143,42.59l-52.192-10.901c-78.018,73.6-119.724,161.826-122.949,265.518c-4-24.005-9.7-47.099-17.466-69.086
				c6.667-97.166,47.978-180.359,122.175-250.338l52.23,10.923l23.143-42.59l29.708,28.134l46.583-45.077
				C2292.666,616.681,2307.257,651.737,2315.447,685.406z"/>
		</g>
		<g style="opacity:0.55;">
			<path style="fill:#FFFFFF;" d="M1521.921,722.472c3.51,7.74,7.459,15.427,11.748,23.053l-5.703-0.117
				C1525.5,737.809,1523.472,730.156,1521.921,722.472z"/>
		</g>
		<g style="opacity:0.55;">
			<path style="fill:#FFFFFF;" d="M1996.064,894.149c-2.111-12.653-4.694-25.018-7.789-37.114
				c3.105,7.201,5.947,14.505,8.563,21.934C1996.464,883.963,1996.245,889.045,1996.064,894.149z"/>
		</g>
		<g>
			<path style="fill:#390176;" d="M1850.013,1674.157c-1.16,0-2.327-0.132-3.484-0.396c-5.422-1.255-9.758-5.317-11.355-10.654
				c-22.744-76.011-29.233-139.561-19.441-194.878c-28.667,23.13-62.139,39.8-100.098,49.795c-5.574,1.46-11.514-0.283-15.398-4.556
				c-3.884-4.268-5.073-10.342-3.086-15.762l5.615-15.303l-155.032,12.065c-6.038,0.508-11.838-2.642-14.771-7.974
				c-2.932-5.327-2.476-11.88,1.17-16.748l14.688-19.624c-57.024-7.461-112.271-32.271-168.049-75.332
				c-3.743-2.891-5.959-7.329-6.023-12.056c-0.061-4.731,2.041-9.229,5.706-12.212l38.789-31.602l-15.625-20.889
				c-2.883-3.858-3.811-8.833-2.51-13.467c1.304-4.634,4.688-8.403,9.158-10.191l34.365-13.755l-3.74-41.582
				c-0.454-5.054,1.594-10.01,5.486-13.262c63.708-53.325,133.728-84.6,208.95-93.457c-49.116-25.093-88.127-59.053-118.191-102.676
				c-3.042-4.414-3.584-10.088-1.436-14.995c2.148-4.912,6.682-8.364,11.99-9.126l10.486-1.504
				c-59.807-81.304-86.909-160.083-82.744-240.122c0.435-8.345,7.532-14.941,15.767-14.678l16.836,0.322
				c-21.142-45.342-28.262-88.291-21.741-130.63c1.13-7.349,7.324-12.857,14.753-13.12c42.839-1.567,84.602,10.571,127.219,36.909
				l1.653-16.777c0.823-8.32,8.135-14.541,16.436-13.936c79.932,5.278,154.973,41.436,228.73,110.347l2.708-10.2
				c1.377-5.181,5.334-9.282,10.462-10.845c5.129-1.558,10.701-0.357,14.729,3.179c39.788,34.932,68.94,77.651,88.113,129.409
				c17.61-73.643,56.877-139.502,117.314-196.519c3.687-3.477,8.84-4.922,13.809-3.896l40.891,8.574l17.661-32.485
				c2.3-4.228,6.433-7.148,11.187-7.9c4.744-0.747,9.585,0.742,13.079,4.058l18.945,17.959l35.908-34.79
				c3.396-3.286,8.108-4.834,12.793-4.233c4.685,0.615,8.835,3.335,11.267,7.388c36.25,60.415,54.417,118.184,55.134,175.713
				l21.182-12.261c5.264-3.052,11.826-2.72,16.765,0.801c4.946,3.54,7.368,9.639,6.189,15.606l-30.149,152.534l15.84-3.77
				c5.62-1.328,11.504,0.562,15.283,4.917c3.782,4.36,4.827,10.459,2.712,15.825c-14.377,36.519-34.861,67.803-61.201,93.565
				c56.074-3.262,118.438,10.664,191.26,42.173c5.11,2.207,8.64,6.992,9.246,12.524c0.608,5.537-1.802,10.972-6.311,14.233
				c-63.892,46.26-110.425,107.715-138.303,182.656c-2.329,6.255-8.435,10.313-15.066,10.078l-46.907-1.665l7.141,13.506
				c2.112,3.994,2.375,8.706,0.723,12.91s-5.059,7.476-9.324,8.96c-61.494,21.411-128.899,7.769-200.315-40.557
				c-0.183-0.122-0.364-0.249-0.54-0.381c-3.704-2.744-7.402-5.239-10.994-7.427c-8-4.873-14.409-0.112-16.179,1.465
				c-1.77,1.572-7.246,7.368-3.35,15.894c1.746,3.823,3.792,7.788,6.082,11.782c0.11,0.195,0.217,0.391,0.317,0.586
				c39.6,76.587,45.251,145.108,16.804,203.657c-1.973,4.063-5.623,7.061-9.99,8.213c-4.37,1.142-9.023,0.332-12.737-2.231
				l-12.585-8.687l-3.875,46.826c-0.552,6.646-5.295,12.192-11.777,13.77c-77.69,18.896-144.18,57.891-197.622,115.913
				C1858.438,1672.384,1854.288,1674.157,1850.013,1674.157z M1850.982,1393.131c2.712,0,5.452,0.708,7.932,2.192
				c6.882,4.111,9.49,12.793,6.013,20.015c-27.497,57.124-29.897,125.405-7.207,213.34c51.489-49.37,112.932-83.857,183.12-102.744
				l5.171-62.51c0.457-5.508,3.813-10.357,8.811-12.72c4.995-2.368,10.876-1.895,15.422,1.25l18.85,13.008
				c15.735-45.903,8.047-98.047-23.276-158.745c-2.69-4.717-5.112-9.429-7.207-14.009c-8.33-18.228-4.033-38.608,10.947-51.924
				c14.983-13.315,35.723-15.195,52.854-4.775c4.304,2.617,8.696,5.576,13.064,8.799c56.606,38.237,107.5,51.973,154.956,41.719
				l-10.708-20.254c-2.585-4.888-2.368-10.781,0.569-15.469c2.935-4.688,8.21-7.456,13.672-7.251l62.639,2.226
				c26.995-67.485,68.452-124.463,123.523-169.795c-84.661-32.851-152.749-38.481-212.715-17.876
				c-7.583,2.603-15.896-1.001-19.17-8.32c-3.276-7.314-0.43-15.918,6.563-19.839c39.578-22.188,69.331-52.212,90.308-91.294
				l-8.325,1.982c-5.12,1.226-10.522-0.249-14.324-3.906c-3.799-3.657-5.476-8.994-4.456-14.165l28.196-142.651l-15.886,9.194
				c-5.002,2.9-11.206,2.769-16.082-0.342c-4.875-3.105-7.615-8.667-7.104-14.429c4.875-55.044-8.225-110.454-40-168.843
				l-32.253,31.25c-5.962,5.781-15.41,5.82-21.436,0.117l-15.085-14.302l-13.535,24.897c-3.269,6.011-10.083,9.146-16.787,7.764
				l-44.167-9.263c-71.567,69.961-109.343,153.755-112.307,249.175c-0.247,7.964-6.494,14.439-14.441,14.976
				c-7.903,0.591-15.005-5.044-16.318-12.905c-11.853-71.03-38.042-127.314-79.807-171.24l-2.766,10.425
				c-1.428,5.371-5.625,9.57-10.998,10.996c-5.366,1.416-11.096-0.132-15.003-4.097c-69.685-70.688-139.519-109.57-212.991-118.496
				l-2.688,27.241c-0.544,5.527-4.004,10.337-9.07,12.612c-5.068,2.271-10.959,1.655-15.452-1.606
				c-39.897-29.014-78.186-44.053-116.614-45.737c-2.827,38.408,7.622,78.184,31.76,121.138c2.72,4.844,2.639,10.771-0.212,15.537
				c-2.849,4.77-7.996,7.813-13.589,7.534l-27.373-0.527c0.212,74.043,30.635,147.954,92.686,225.42
				c3.474,4.336,4.358,10.205,2.314,15.376c-2.043,5.171-6.702,8.848-12.205,9.639l-10.713,1.538
				c38.774,46.665,91.607,79.277,160.715,99.341c7.649,2.222,12.368,9.883,10.908,17.715c-1.46,7.827-8.523,13.311-16.563,12.588
				c-95.149-8.208-182.805,19.463-260.664,82.315l4.041,44.917c0.613,6.816-3.32,13.223-9.673,15.767l-26.336,10.537l12.439,16.631
				c4.976,6.65,3.818,16.04-2.62,21.284l-34.849,28.389c54.297,38.394,107.788,57.896,163.01,59.512
				c5.779,0.171,10.984,3.545,13.496,8.755c2.512,5.205,1.914,11.382-1.55,16.011l-11.016,14.717l144.995-11.284
				c5.224-0.439,10.364,1.88,13.547,6.084s4.011,9.741,2.195,14.692l-2.922,7.959c41.023-16.333,74.973-42.769,101.206-78.872
				C1841.456,1395.368,1846.173,1393.131,1850.982,1393.131z"/>
		</g>
		<g>
			<path style="fill:#390176;" d="M2070.769,1261.547c-73.884-69.267-145.144-141.431-212.771-216.953
				c-16.846-18.931-33.84-37.741-50.271-57.05c-8.208-9.66-16.133-19.561-24.036-29.473l-23.271-30.082l-22.854-30.39
				l-22.192-30.873l-21.65-31.24l-20.955-31.701c-2.024-3.06-1.182-7.181,1.877-9.203c2.886-1.908,6.716-1.268,8.84,1.379
				l0.083,0.104l23.542,29.542l23.75,29.338c16.013,19.406,32.09,38.732,48.325,57.916l49.287,57.028
				c16.316,19.093,32.515,38.3,49.307,56.993c67.046,74.875,137.764,146.494,211.145,215.29c5.352,5.012,5.625,13.414,0.613,18.765
				c-5.012,5.351-13.413,5.626-18.765,0.613L2070.769,1261.547z"/>
		</g>
		<g>
			<path style="fill:#390176;" d="M2052.146,1236.442c-64.941,11.752-129.419,26.071-193.259,42.838
				c-15.933,4.312-31.729,9.076-47.803,12.876c-16.042,3.922-32.058,7.98-48.047,12.167c-31.98,8.369-63.904,17.088-95.784,26.147
				c-3.53,1.005-7.209-1.043-8.213-4.575c-0.935-3.285,0.806-6.71,3.892-7.979c30.852-12.537,62.051-24.269,93.557-35.167
				c15.767-5.404,31.582-10.685,47.449-15.836c15.857-5.194,32.061-9.162,48.203-13.315
				c64.497-16.938,129.651-31.407,195.278-43.284c7.214-1.306,14.121,3.484,15.427,10.699S2059.36,1235.137,2052.146,1236.442z"/>
		</g>
		<g>
			<path style="fill:#390176;" d="M1827.273,1284.31l-95.62-47.096c-2.2-1.084-3.105-3.746-2.021-5.946
				c0.972-1.975,3.218-2.905,5.259-2.291l102.095,30.622c7.048,2.114,11.047,9.54,8.933,16.588
				c-2.112,7.047-9.539,11.047-16.587,8.932C1828.635,1284.911,1827.905,1284.616,1827.273,1284.31z"/>
		</g>
		<g>
			<path style="fill:#390176;" d="M1982.71,1248.863c-17.156,11.036-32.754,25.226-46.792,41.083
				c-14.053,15.877-26.606,33.4-38.083,51.703l-0.015,0.023c-1.948,3.11-6.05,4.05-9.16,2.1c-2.908-1.824-3.906-5.559-2.427-8.575
				c9.824-19.872,20.923-39.308,34.111-57.659c13.184-18.317,28.53-35.601,46.846-50.219l0.034-0.026
				c5.737-4.581,14.102-3.642,18.682,2.097s3.643,14.103-2.097,18.683C1983.457,1248.354,1983.079,1248.623,1982.71,1248.863z"/>
		</g>
		<g>
			<path style="fill:#390176;" d="M2037.449,1219.177c19.495-63.782,41.509-126.786,65.898-188.849
				c6.018-15.544,11.86-31.171,18.879-46.308c6.978-15.152,14.077-30.239,21.294-45.263c14.519-30.01,29.832-59.618,45.903-88.787
				c1.77-3.215,5.813-4.386,9.028-2.614c2.993,1.648,4.199,5.295,2.93,8.379c-12.737,30.596-25.142,61.277-37.205,92.054
				c-6.035,15.387-11.943,30.815-17.722,46.286c-5.659,15.517-12.244,30.647-18.396,45.962
				c-24.141,61.432-45.928,123.785-65.217,186.899c-2.144,7.012-9.565,10.959-16.577,8.817
				C2039.253,1233.611,2035.305,1226.188,2037.449,1219.177z"/>
		</g>
		<g>
			<path style="fill:#390176;" d="M2111.084,1015.98l-18.43-104.983c-0.425-2.416,1.189-4.717,3.606-5.142
				c2.168-0.381,4.246,0.883,4.954,2.893l35.552,100.485c2.454,6.936-1.179,14.548-8.115,17.003
				c-6.936,2.454-14.548-1.18-17.004-8.116C2111.404,1017.436,2111.211,1016.671,2111.084,1015.98z"/>
		</g>
		<g>
			<path style="fill:#390176;" d="M2069.297,1126.744c17.861-15.171,37.769-26.918,58.274-36.345
				c20.54-9.423,41.743-16.588,63.13-22.418c3.542-0.965,7.195,1.123,8.159,4.664c0.903,3.312-0.867,6.723-3.997,7.94l-0.054,0.02
				c-20.166,7.753-39.771,16.713-58.049,27.46c-18.254,10.735-35.173,23.322-49.294,38.042c-5.083,5.298-13.499,5.472-18.796,0.389
				s-5.474-13.499-0.391-18.796c0.313-0.325,0.637-0.632,0.972-0.918L2069.297,1126.744z"/>
		</g>
		<g>
			<path style="fill:#390176;" d="M1798.372,1125.475c11.958,2.557,24.692,3.893,37.151,4.478
				c12.52,0.551,25.046,0.447,37.466-0.635c12.407-1.063,24.736-2.653,36.812-5.308c12.126-2.372,23.931-5.956,35.554-9.755
				l0.41-0.134c6.985-2.283,14.5,1.529,16.782,8.515c2.285,6.986-1.528,14.5-8.513,16.784c-0.481,0.157-0.977,0.287-1.462,0.387
				c-13.135,2.694-26.284,5.046-39.553,6.095c-13.223,1.332-26.499,1.511-39.673,1.114c-13.184-0.378-26.289-1.783-39.229-3.861
				c-12.986-2.147-25.62-4.916-38.345-9.219c-2.314-0.782-3.555-3.293-2.773-5.607c0.728-2.15,2.947-3.375,5.115-2.909
				L1798.372,1125.475z"/>
		</g>
		<g>
			<path style="fill:#390176;" d="M1839.985,875.784c7.141,11.733,12.769,23.734,17.8,36.245
				c4.998,12.47,9.219,25.303,12.451,38.441c3.286,13.12,5.835,26.514,7.188,40.108c1.665,13.58,1.782,27.333,1.514,41.141
				c-0.142,7.348-6.213,13.19-13.562,13.047c-7.349-0.143-13.191-6.215-13.049-13.563c0.01-0.491,0.046-0.975,0.107-1.451
				l0.068-0.52c1.611-12.341,2.961-24.853,2.827-37.465c0.178-12.613-0.781-25.288-2.466-37.909
				c-1.631-12.638-4.246-25.2-7.651-37.573c-3.386-12.318-7.632-24.721-12.908-36.105l-0.11-0.237
				c-1.028-2.216-0.063-4.845,2.153-5.873C1836.411,873.115,1838.833,873.885,1839.985,875.784z"/>
		</g>
	</g>
</g>
</svg>
